<?xml version="1.0" encoding="UTF-8" standalone="no"?>
<!DOCTYPE svg PUBLIC "-//W3C//DTD SVG 1.1//EN"
 "http://www.w3.org/Graphics/SVG/1.1/DTD/svg11.dtd">
<!-- Generated by graphviz version 9.0.0 (20230911.1827)
 -->
<!-- Title: G Pages: 1 -->
<svg width="746pt" height="995pt"
 viewBox="0.00 0.00 746.14 994.50" xmlns="http://www.w3.org/2000/svg" xmlns:xlink="http://www.w3.org/1999/xlink">
<g id="graph0" class="graph" transform="scale(1 1) rotate(0) translate(4 990.5)">
<title>G</title>
<polygon fill="white" stroke="none" points="-4,4 -4,-990.5 742.14,-990.5 742.14,4 -4,4"/>
<!-- Start -->
<g id="node1" class="node">
<title>Start</title>
<ellipse fill="lightgrey" stroke="black" cx="22.02" cy="-79" rx="22.02" ry="22.02"/>
<text text-anchor="middle" x="22.02" y="-74.72" font-family="Times,serif" font-size="12.00">Start</text>
</g>
<!-- 1 -->
<g id="node2" class="node">
<title>1</title>
<ellipse fill="none" stroke="black" cx="108.39" cy="-189" rx="21.6" ry="21.6"/>
<text text-anchor="middle" x="108.39" y="-184.72" font-family="Times,serif" font-size="12.00">1</text>
</g>
<!-- Start&#45;&gt;1 -->
<g id="edge1" class="edge">
<title>Start&#45;&gt;1</title>
<path fill="none" stroke="black" d="M36.2,-96.19C50.03,-114.21 71.91,-142.74 87.77,-163.41"/>
<polygon fill="black" stroke="black" points="84.79,-165.29 93.66,-171.09 90.35,-161.03 84.79,-165.29"/>
<text text-anchor="middle" x="65.42" y="-141.2" font-family="Times,serif" font-size="14.00">b</text>
</g>
<!-- 8 -->
<g id="node9" class="node">
<title>8</title>
<ellipse fill="none" stroke="black" cx="716.54" cy="-519" rx="21.6" ry="21.6"/>
<text text-anchor="middle" x="716.54" y="-514.73" font-family="Times,serif" font-size="12.00">8</text>
</g>
<!-- Start&#45;&gt;8 -->
<g id="edge2" class="edge">
<title>Start&#45;&gt;8</title>
<path fill="none" stroke="black" d="M42.24,-88.9C58.99,-96.61 84.17,-106 107.39,-106 107.39,-106 107.39,-106 627.59,-106 705.09,-106 714.57,-387.71 715.52,-485.81"/>
<polygon fill="black" stroke="black" points="712.02,-485.6 715.59,-495.57 719.02,-485.55 712.02,-485.6"/>
<text text-anchor="middle" x="364.74" y="-109.2" font-family="Times,serif" font-size="14.00">a</text>
</g>
<!-- Start&#45;&gt;8 -->
<g id="edge3" class="edge">
<title>Start&#45;&gt;8</title>
<path fill="none" stroke="black" d="M42.28,-69.47C59.05,-62.05 84.25,-53 107.39,-53 107.39,-53 107.39,-53 627.59,-53 640.4,-53 675.66,-140.38 676.94,-145 710.77,-267.3 715.48,-419.53 715.79,-485.7"/>
<polygon fill="black" stroke="black" points="712.29,-485.52 715.8,-495.52 719.29,-485.51 712.29,-485.52"/>
<text text-anchor="middle" x="364.74" y="-56.2" font-family="Times,serif" font-size="14.00">d</text>
</g>
<!-- Start&#45;&gt;8 -->
<g id="edge4" class="edge">
<title>Start&#45;&gt;8</title>
<path fill="none" stroke="black" d="M32.93,-59.47C46.35,-36.08 72.68,0 107.39,0 107.39,0 107.39,0 627.59,0 658.97,0 670.68,-93.01 676.94,-126 701.96,-257.85 711.29,-417.84 714.29,-485.85"/>
<polygon fill="black" stroke="black" points="710.78,-485.72 714.7,-495.56 717.78,-485.43 710.78,-485.72"/>
<text text-anchor="middle" x="364.74" y="-3.2" font-family="Times,serif" font-size="14.00">g</text>
</g>
<!-- 2 -->
<g id="node3" class="node">
<title>2</title>
<ellipse fill="none" stroke="black" cx="194.34" cy="-326" rx="21.6" ry="21.6"/>
<text text-anchor="middle" x="194.34" y="-321.73" font-family="Times,serif" font-size="12.00">2</text>
</g>
<!-- 1&#45;&gt;2 -->
<g id="edge5" class="edge">
<title>1&#45;&gt;2</title>
<path fill="none" stroke="black" d="M120.54,-207.19C134.78,-230.43 159.56,-270.87 176.2,-298.04"/>
<polygon fill="black" stroke="black" points="173.15,-299.74 181.36,-306.44 179.12,-296.09 173.15,-299.74"/>
<text text-anchor="middle" x="151.37" y="-265.2" font-family="Times,serif" font-size="14.00">b</text>
</g>
<!-- 1&#45;&gt;8 -->
<g id="edge6" class="edge">
<title>1&#45;&gt;8</title>
<path fill="none" stroke="black" d="M125.97,-202.32C142.16,-213.96 167.99,-229 193.34,-229 193.34,-229 193.34,-229 365.74,-229 422.16,-229 436.25,-227 492.67,-227 492.67,-227 492.67,-227 627.59,-227 681.24,-227 705.06,-409.99 712.66,-486.25"/>
<polygon fill="black" stroke="black" points="709.16,-486.4 713.6,-496.02 716.13,-485.73 709.16,-486.4"/>
<text text-anchor="middle" x="407.72" y="-232.2" font-family="Times,serif" font-size="14.00">a</text>
</g>
<!-- 1&#45;&gt;8 -->
<g id="edge7" class="edge">
<title>1&#45;&gt;8</title>
<path fill="none" stroke="black" d="M130.44,-189C147.42,-189 171.92,-189 193.34,-189 193.34,-189 193.34,-189 627.59,-189 688.55,-189 708.33,-401.93 713.75,-485.71"/>
<polygon fill="black" stroke="black" points="710.25,-485.81 714.35,-495.58 717.23,-485.39 710.25,-485.81"/>
<text text-anchor="middle" x="407.72" y="-192.2" font-family="Times,serif" font-size="14.00">d</text>
</g>
<!-- 1&#45;&gt;8 -->
<g id="edge8" class="edge">
<title>1&#45;&gt;8</title>
<path fill="none" stroke="black" d="M126.08,-176.35C142.34,-165.29 168.22,-151 193.34,-151 193.34,-151 193.34,-151 323.14,-151 379.39,-151 393.44,-149 449.69,-149 449.69,-149 449.69,-149 627.59,-149 696.47,-149 711.49,-394.75 714.7,-485.69"/>
<polygon fill="black" stroke="black" points="711.19,-485.57 715.01,-495.45 718.19,-485.34 711.19,-485.57"/>
<text text-anchor="middle" x="407.72" y="-153.2" font-family="Times,serif" font-size="14.00">g</text>
</g>
<!-- 3 -->
<g id="node4" class="node">
<title>3</title>
<ellipse fill="none" stroke="black" cx="279.54" cy="-462" rx="21.6" ry="21.6"/>
<text text-anchor="middle" x="279.54" y="-457.73" font-family="Times,serif" font-size="12.00">3</text>
</g>
<!-- 2&#45;&gt;3 -->
<g id="edge10" class="edge">
<title>2&#45;&gt;3</title>
<path fill="none" stroke="black" d="M205.74,-344.63C213.37,-358.16 224.08,-376.85 233.94,-393 242.45,-406.93 252.26,-422.19 260.51,-434.81"/>
<polygon fill="black" stroke="black" points="257.49,-436.59 265.91,-443.02 263.34,-432.74 257.49,-436.59"/>
<text text-anchor="middle" x="236.94" y="-405.2" font-family="Times,serif" font-size="14.00">a</text>
</g>
<!-- 2&#45;&gt;8 -->
<g id="edge9" class="edge">
<title>2&#45;&gt;8</title>
<path fill="none" stroke="black" d="M209.25,-341.9C224.53,-357.51 250.62,-379 278.54,-379 278.54,-379 278.54,-379 627.59,-379 677.99,-379 700.63,-444.86 709.88,-486.23"/>
<polygon fill="black" stroke="black" points="706.43,-486.86 711.88,-495.95 713.29,-485.45 706.43,-486.86"/>
<text text-anchor="middle" x="450.69" y="-382.2" font-family="Times,serif" font-size="14.00">b</text>
</g>
<!-- 2&#45;&gt;8 -->
<g id="edge11" class="edge">
<title>2&#45;&gt;8</title>
<path fill="none" stroke="black" d="M216.2,-326C233.03,-326 257.31,-326 278.54,-326 278.54,-326 278.54,-326 627.59,-326 697.06,-326 711.9,-430.82 714.91,-485.96"/>
<polygon fill="black" stroke="black" points="711.4,-485.88 715.33,-495.72 718.39,-485.58 711.4,-485.88"/>
<text text-anchor="middle" x="450.69" y="-329.2" font-family="Times,serif" font-size="14.00">d</text>
</g>
<!-- 2&#45;&gt;8 -->
<g id="edge12" class="edge">
<title>2&#45;&gt;8</title>
<path fill="none" stroke="black" d="M209.25,-310.1C224.53,-294.49 250.62,-273 278.54,-273 278.54,-273 278.54,-273 627.59,-273 672.41,-273 700.45,-419.61 710.9,-486.47"/>
<polygon fill="black" stroke="black" points="707.4,-486.74 712.36,-496.1 714.32,-485.69 707.4,-486.74"/>
<text text-anchor="middle" x="450.69" y="-276.2" font-family="Times,serif" font-size="14.00">g</text>
</g>
<!-- 4 -->
<g id="node5" class="node">
<title>4</title>
<ellipse fill="none" stroke="black" cx="364.74" cy="-595" rx="21.6" ry="21.6"/>
<text text-anchor="middle" x="364.74" y="-590.73" font-family="Times,serif" font-size="12.00">4</text>
</g>
<!-- 3&#45;&gt;4 -->
<g id="edge14" class="edge">
<title>3&#45;&gt;4</title>
<path fill="none" stroke="black" d="M291.93,-480.21C306,-502.7 330.06,-541.16 346.42,-567.31"/>
<polygon fill="black" stroke="black" points="343.41,-569.1 351.68,-575.72 349.35,-565.39 343.41,-569.1"/>
<text text-anchor="middle" x="322.14" y="-535.2" font-family="Times,serif" font-size="14.00">a</text>
</g>
<!-- 3&#45;&gt;8 -->
<g id="edge13" class="edge">
<title>3&#45;&gt;8</title>
<path fill="none" stroke="black" d="M299.9,-470.05C305.97,-472.29 312.75,-474.52 319.14,-476 452.09,-506.85 615.38,-515.69 683.42,-518.12"/>
<polygon fill="black" stroke="black" points="682.99,-521.61 693.1,-518.44 683.22,-514.61 682.99,-521.61"/>
<text text-anchor="middle" x="493.67" y="-507.2" font-family="Times,serif" font-size="14.00">b</text>
</g>
<!-- 3&#45;&gt;8 -->
<g id="edge15" class="edge">
<title>3&#45;&gt;8</title>
<path fill="none" stroke="black" d="M301.49,-463.65C340.2,-466.78 425.51,-474.15 497.04,-483.5 563.6,-492.2 641.05,-505.56 683.55,-513.16"/>
<polygon fill="black" stroke="black" points="682.86,-516.6 693.33,-514.92 684.11,-509.71 682.86,-516.6"/>
<text text-anchor="middle" x="493.67" y="-486.2" font-family="Times,serif" font-size="14.00">d</text>
</g>
<!-- 3&#45;&gt;8 -->
<g id="edge16" class="edge">
<title>3&#45;&gt;8</title>
<path fill="none" stroke="black" d="M301.37,-461.36C307.13,-461.21 313.38,-461.07 319.14,-461 321.81,-460.97 322.47,-461 325.14,-461 401.54,-461.11 421.08,-453.28 497.04,-461.5 567.18,-469.09 584.54,-475 652.19,-495 663.21,-498.26 675.04,-502.52 685.46,-506.55"/>
<polygon fill="black" stroke="black" points="684.12,-509.78 694.7,-510.22 686.7,-503.28 684.12,-509.78"/>
<text text-anchor="middle" x="493.67" y="-464.2" font-family="Times,serif" font-size="14.00">g</text>
</g>
<!-- 5 -->
<g id="node6" class="node">
<title>5</title>
<ellipse fill="none" stroke="black" cx="450.69" cy="-731" rx="21.6" ry="21.6"/>
<text text-anchor="middle" x="450.69" y="-726.73" font-family="Times,serif" font-size="12.00">5</text>
</g>
<!-- 4&#45;&gt;5 -->
<g id="edge18" class="edge">
<title>4&#45;&gt;5</title>
<path fill="none" stroke="black" d="M376.1,-613.66C383.71,-627.2 394.41,-645.88 404.34,-662 412.94,-675.96 422.91,-691.23 431.31,-703.84"/>
<polygon fill="black" stroke="black" points="428.34,-705.69 436.81,-712.06 434.16,-701.8 428.34,-705.69"/>
<text text-anchor="middle" x="407.72" y="-674.2" font-family="Times,serif" font-size="14.00">a</text>
</g>
<!-- 4&#45;&gt;8 -->
<g id="edge17" class="edge">
<title>4&#45;&gt;8</title>
<path fill="none" stroke="black" d="M379.81,-610.9C395.24,-626.51 421.6,-648 449.69,-648 449.69,-648 449.69,-648 627.59,-648 674.26,-648 697.94,-589.64 708.44,-551.43"/>
<polygon fill="black" stroke="black" points="711.82,-552.32 710.91,-541.77 705.04,-550.59 711.82,-552.32"/>
<text text-anchor="middle" x="536.64" y="-651.2" font-family="Times,serif" font-size="14.00">b</text>
</g>
<!-- 4&#45;&gt;8 -->
<g id="edge19" class="edge">
<title>4&#45;&gt;8</title>
<path fill="none" stroke="black" d="M386.79,-595C403.77,-595 428.27,-595 449.69,-595 449.69,-595 449.69,-595 627.59,-595 658.04,-595 683.15,-568.6 698.64,-546.92"/>
<polygon fill="black" stroke="black" points="701.52,-548.9 704.21,-538.65 695.72,-544.98 701.52,-548.9"/>
<text text-anchor="middle" x="536.64" y="-598.2" font-family="Times,serif" font-size="14.00">d</text>
</g>
<!-- 4&#45;&gt;8 -->
<g id="edge20" class="edge">
<title>4&#45;&gt;8</title>
<path fill="none" stroke="black" d="M379.81,-579.1C395.24,-563.49 421.6,-542 449.69,-542 449.69,-542 449.69,-542 627.59,-542 647.21,-542 668.51,-536.58 685.24,-531"/>
<polygon fill="black" stroke="black" points="686.33,-534.32 694.59,-527.68 683.99,-527.73 686.33,-534.32"/>
<text text-anchor="middle" x="536.64" y="-545.2" font-family="Times,serif" font-size="14.00">g</text>
</g>
<!-- 6 -->
<g id="node7" class="node">
<title>6</title>
<ellipse fill="none" stroke="black" cx="536.64" cy="-864" rx="21.6" ry="21.6"/>
<text text-anchor="middle" x="536.64" y="-859.73" font-family="Times,serif" font-size="12.00">6</text>
</g>
<!-- 5&#45;&gt;6 -->
<g id="edge22" class="edge">
<title>5&#45;&gt;6</title>
<path fill="none" stroke="black" d="M463.19,-749.21C477.38,-771.7 501.66,-810.16 518.16,-836.31"/>
<polygon fill="black" stroke="black" points="515.18,-838.14 523.47,-844.73 521.1,-834.4 515.18,-838.14"/>
<text text-anchor="middle" x="493.67" y="-804.2" font-family="Times,serif" font-size="14.00">a</text>
</g>
<!-- 5&#45;&gt;8 -->
<g id="edge21" class="edge">
<title>5&#45;&gt;8</title>
<path fill="none" stroke="black" d="M470.94,-739.73C513.96,-757.77 618.67,-793.28 676.94,-741 704.34,-716.42 712.32,-608.01 714.62,-552.3"/>
<polygon fill="black" stroke="black" points="718.11,-552.58 714.98,-542.46 711.11,-552.32 718.11,-552.58"/>
<text text-anchor="middle" x="579.62" y="-770.2" font-family="Times,serif" font-size="14.00">b</text>
</g>
<!-- 5&#45;&gt;8 -->
<g id="edge23" class="edge">
<title>5&#45;&gt;8</title>
<path fill="none" stroke="black" d="M472.3,-735.48C516.18,-743.69 619.52,-755.83 676.94,-703 698.7,-682.98 708.99,-599.16 713.15,-551.86"/>
<polygon fill="black" stroke="black" points="716.61,-552.44 713.95,-542.19 709.64,-551.86 716.61,-552.44"/>
<text text-anchor="middle" x="579.62" y="-744.2" font-family="Times,serif" font-size="14.00">d</text>
</g>
<!-- 5&#45;&gt;8 -->
<g id="edge24" class="edge">
<title>5&#45;&gt;8</title>
<path fill="none" stroke="black" d="M472.47,-730.94C516.69,-729.66 620.65,-720.22 676.94,-662 705.31,-632.66 713.34,-584.73 715.35,-552.54"/>
<polygon fill="black" stroke="black" points="718.84,-552.7 715.78,-542.56 711.85,-552.4 718.84,-552.7"/>
<text text-anchor="middle" x="579.62" y="-718.2" font-family="Times,serif" font-size="14.00">g</text>
</g>
<!-- 7 -->
<g id="node8" class="node">
<title>7</title>
<ellipse fill="none" stroke="black" cx="626.59" cy="-931" rx="21.6" ry="21.6"/>
<ellipse fill="none" stroke="black" cx="626.59" cy="-931" rx="25.6" ry="25.6"/>
<text text-anchor="middle" x="626.59" y="-926.73" font-family="Times,serif" font-size="12.00">7</text>
</g>
<!-- 6&#45;&gt;7 -->
<g id="edge27" class="edge">
<title>6&#45;&gt;7</title>
<path fill="none" stroke="black" d="M547.94,-882.82C554.71,-893.61 564.48,-906.63 576.24,-915 580.48,-918.02 585.33,-920.49 590.28,-922.51"/>
<polygon fill="black" stroke="black" points="589.1,-925.8 599.69,-925.74 591.37,-919.18 589.1,-925.8"/>
<text text-anchor="middle" x="579.62" y="-921.2" font-family="Times,serif" font-size="14.00">d</text>
</g>
<!-- 6&#45;&gt;7 -->
<g id="edge28" class="edge">
<title>6&#45;&gt;7</title>
<path fill="none" stroke="black" d="M555.2,-875.12C563.75,-880.71 574.08,-887.72 582.99,-894.5 588.03,-898.33 593.26,-902.57 598.25,-906.76"/>
<polygon fill="black" stroke="black" points="595.87,-909.34 605.75,-913.18 600.42,-904.02 595.87,-909.34"/>
<text text-anchor="middle" x="579.62" y="-897.2" font-family="Times,serif" font-size="14.00">g</text>
</g>
<!-- 6&#45;&gt;8 -->
<g id="edge25" class="edge">
<title>6&#45;&gt;8</title>
<path fill="none" stroke="black" d="M558.54,-864.63C589.98,-864.31 648.8,-858.51 676.94,-822 709,-780.41 714.56,-621.83 715.43,-552.16"/>
<polygon fill="black" stroke="black" points="718.93,-552.55 715.52,-542.52 711.93,-552.48 718.93,-552.55"/>
<text text-anchor="middle" x="626.59" y="-863.2" font-family="Times,serif" font-size="14.00">b</text>
</g>
<!-- 6&#45;&gt;8 -->
<g id="edge26" class="edge">
<title>6&#45;&gt;8</title>
<path fill="none" stroke="black" d="M555.21,-852.09C567.82,-843.63 585.3,-832.12 600.99,-822.5 634.15,-802.17 655.01,-811.13 676.94,-779 701.73,-742.7 711.07,-613.78 714.17,-552.21"/>
<polygon fill="black" stroke="black" points="717.66,-552.51 714.64,-542.35 710.67,-552.17 717.66,-552.51"/>
<text text-anchor="middle" x="626.59" y="-825.2" font-family="Times,serif" font-size="14.00">a</text>
</g>
<!-- 7&#45;&gt;8 -->
<g id="edge29" class="edge">
<title>7&#45;&gt;8</title>
<path fill="none" stroke="black" d="M641.63,-952.12C651.87,-964.99 665.84,-977.18 676.94,-967 707.38,-939.07 713.87,-651.04 715.21,-552.13"/>
<polygon fill="black" stroke="black" points="718.71,-552.33 715.33,-542.29 711.71,-552.25 718.71,-552.33"/>
<text text-anchor="middle" x="673.57" y="-973.2" font-family="Times,serif" font-size="14.00">b</text>
</g>
<!-- 7&#45;&gt;8 -->
<g id="edge30" class="edge">
<title>7&#45;&gt;8</title>
<path fill="none" stroke="black" d="M652.14,-935.08C661.06,-935.15 670.52,-933.34 676.94,-927 703.42,-900.88 712.39,-645.2 714.79,-552.42"/>
<polygon fill="black" stroke="black" points="718.29,-552.54 715.04,-542.46 711.3,-552.37 718.29,-552.54"/>
<text text-anchor="middle" x="673.57" y="-934.2" font-family="Times,serif" font-size="14.00">a</text>
</g>
<!-- 7&#45;&gt;8 -->
<g id="edge31" class="edge">
<title>7&#45;&gt;8</title>
<path fill="none" stroke="black" d="M648.75,-917.7C659.05,-910.04 670.55,-899.46 676.94,-887 706.69,-828.95 713.53,-631.43 715.09,-552.24"/>
<polygon fill="black" stroke="black" points="718.58,-552.59 715.26,-542.53 711.58,-552.46 718.58,-552.59"/>
<text text-anchor="middle" x="673.57" y="-899.2" font-family="Times,serif" font-size="14.00">d</text>
</g>
<!-- 7&#45;&gt;8 -->
<g id="edge32" class="edge">
<title>7&#45;&gt;8</title>
<path fill="none" stroke="black" d="M642.74,-910.77C654.13,-894.44 669.08,-870.41 676.94,-847 711.71,-743.52 716.11,-612.55 716.09,-552.21"/>
<polygon fill="black" stroke="black" points="719.59,-552.27 716.03,-542.28 712.59,-552.3 719.59,-552.27"/>
<text text-anchor="middle" x="673.57" y="-864.2" font-family="Times,serif" font-size="14.00">g</text>
</g>
<!-- 8&#45;&gt;8 -->
<g id="edge33" class="edge">
<title>8&#45;&gt;8</title>
<path fill="none" stroke="black" d="M714.55,-540.99C714.39,-550.48 715.05,-558.6 716.54,-558.6 717.36,-558.6 717.92,-556.17 718.24,-552.42"/>
<polygon fill="black" stroke="black" points="721.74,-552.59 718.49,-542.5 714.74,-552.41 721.74,-552.59"/>
<text text-anchor="middle" x="716.54" y="-561.8" font-family="Times,serif" font-size="14.00">b</text>
</g>
<!-- 8&#45;&gt;8 -->
<g id="edge34" class="edge">
<title>8&#45;&gt;8</title>
<path fill="none" stroke="black" d="M713.1,-540.57C711.68,-558.24 712.83,-576.6 716.54,-576.6 719.44,-576.6 720.78,-565.4 720.54,-552.07"/>
<polygon fill="black" stroke="black" points="724.04,-551.9 720.05,-542.08 717.05,-552.24 724.04,-551.9"/>
<text text-anchor="middle" x="716.54" y="-579.8" font-family="Times,serif" font-size="14.00">a</text>
</g>
<!-- 8&#45;&gt;8 -->
<g id="edge35" class="edge">
<title>8&#45;&gt;8</title>
<path fill="none" stroke="black" d="M712.15,-540.28C708.94,-565.36 710.4,-594.6 716.54,-594.6 721.77,-594.6 723.6,-573.39 722.05,-551.62"/>
<polygon fill="black" stroke="black" points="725.55,-551.4 721.08,-541.79 718.58,-552.09 725.55,-551.4"/>
<text text-anchor="middle" x="716.54" y="-597.8" font-family="Times,serif" font-size="14.00">d</text>
</g>
<!-- 8&#45;&gt;8 -->
<g id="edge36" class="edge">
<title>8&#45;&gt;8</title>
<path fill="none" stroke="black" d="M711.48,-540.15C706.21,-572.19 707.9,-612.6 716.54,-612.6 724.21,-612.6 726.4,-580.83 723.13,-551.29"/>
<polygon fill="black" stroke="black" points="726.63,-551.09 721.81,-541.65 719.7,-552.04 726.63,-551.09"/>
<text text-anchor="middle" x="716.54" y="-615.8" font-family="Times,serif" font-size="14.00">g</text>
</g>
</g>
</svg>
