<?xml version="1.0" encoding="UTF-8" standalone="no"?>
<!DOCTYPE svg PUBLIC "-//W3C//DTD SVG 1.1//EN"
 "http://www.w3.org/Graphics/SVG/1.1/DTD/svg11.dtd">
<!-- Generated by graphviz version 9.0.0 (20230911.1827)
 -->
<!-- Title: G Pages: 1 -->
<svg width="750pt" height="984pt"
 viewBox="0.00 0.00 749.61 983.83" xmlns="http://www.w3.org/2000/svg" xmlns:xlink="http://www.w3.org/1999/xlink">
<g id="graph0" class="graph" transform="scale(1 1) rotate(0) translate(4 979.83)">
<title>G</title>
<polygon fill="white" stroke="none" points="-4,4 -4,-979.83 745.61,-979.83 745.61,4 -4,4"/>
<!-- E -->
<g id="node1" class="node">
<title>E</title>
<ellipse fill="none" stroke="black" cx="720.01" cy="-439.33" rx="21.6" ry="21.6"/>
<text text-anchor="middle" x="720.01" y="-435.06" font-family="Times,serif" font-size="12.00">E</text>
</g>
<!-- E&#45;&gt;E -->
<g id="edge16" class="edge">
<title>E&#45;&gt;E</title>
<path fill="none" stroke="black" d="M718.02,-461.32C717.85,-470.81 718.52,-478.93 720.01,-478.93 720.82,-478.93 721.39,-476.5 721.71,-472.75"/>
<polygon fill="black" stroke="black" points="725.21,-472.92 721.96,-462.84 718.21,-472.74 725.21,-472.92"/>
<text text-anchor="middle" x="720.01" y="-482.13" font-family="Times,serif" font-size="14.00">d</text>
</g>
<!-- E&#45;&gt;E -->
<g id="edge24" class="edge">
<title>E&#45;&gt;E</title>
<path fill="none" stroke="black" d="M716.57,-460.9C715.15,-478.58 716.29,-496.93 720.01,-496.93 722.91,-496.93 724.24,-485.73 724.01,-472.4"/>
<polygon fill="black" stroke="black" points="727.51,-472.23 723.52,-462.41 720.51,-472.57 727.51,-472.23"/>
<text text-anchor="middle" x="720.01" y="-500.13" font-family="Times,serif" font-size="14.00">a</text>
</g>
<!-- E&#45;&gt;E -->
<g id="edge26" class="edge">
<title>E&#45;&gt;E</title>
<path fill="none" stroke="black" d="M715.62,-460.62C712.41,-485.69 713.87,-514.93 720.01,-514.93 725.23,-514.93 727.07,-493.73 725.52,-471.95"/>
<polygon fill="black" stroke="black" points="729.01,-471.73 724.54,-462.12 722.05,-472.42 729.01,-471.73"/>
<text text-anchor="middle" x="720.01" y="-518.13" font-family="Times,serif" font-size="14.00">b</text>
</g>
<!-- E&#45;&gt;E -->
<g id="edge34" class="edge">
<title>E&#45;&gt;E</title>
<path fill="none" stroke="black" d="M714.94,-460.49C709.67,-492.53 711.36,-532.93 720.01,-532.93 727.67,-532.93 729.87,-501.16 726.59,-471.63"/>
<polygon fill="black" stroke="black" points="730.1,-471.42 725.28,-461.99 723.16,-472.37 730.1,-471.42"/>
<text text-anchor="middle" x="720.01" y="-536.13" font-family="Times,serif" font-size="14.00">g</text>
</g>
<!-- {3} -->
<g id="node2" class="node">
<title>{3}</title>
<ellipse fill="none" stroke="black" cx="279.54" cy="-496.33" rx="21.6" ry="21.6"/>
<text text-anchor="middle" x="279.54" y="-492.06" font-family="Times,serif" font-size="12.00">{3}</text>
</g>
<!-- {3}&#45;&gt;E -->
<g id="edge6" class="edge">
<title>{3}&#45;&gt;E</title>
<path fill="none" stroke="black" d="M299.84,-504.67C305.91,-506.93 312.7,-509.08 319.14,-510.33 397.96,-525.61 612.09,-556.52 680.41,-514.33 695.79,-504.83 705.32,-487.04 711.06,-471.17"/>
<polygon fill="black" stroke="black" points="714.26,-472.65 713.98,-462.06 707.59,-470.51 714.26,-472.65"/>
<text text-anchor="middle" x="493.67" y="-537.53" font-family="Times,serif" font-size="14.00">b</text>
</g>
<!-- {3}&#45;&gt;E -->
<g id="edge15" class="edge">
<title>{3}&#45;&gt;E</title>
<path fill="none" stroke="black" d="M301.23,-497.18C373.1,-499.83 611.31,-506.13 680.41,-476.33 687.01,-473.49 693.15,-468.98 698.5,-464.07"/>
<polygon fill="black" stroke="black" points="700.64,-466.88 705.16,-457.29 695.65,-461.97 700.64,-466.88"/>
<text text-anchor="middle" x="493.67" y="-502.53" font-family="Times,serif" font-size="14.00">g</text>
</g>
<!-- {3}&#45;&gt;E -->
<g id="edge25" class="edge">
<title>{3}&#45;&gt;E</title>
<path fill="none" stroke="black" d="M301.39,-493.62C371.95,-484.45 602.03,-454.54 687.05,-443.49"/>
<polygon fill="black" stroke="black" points="687.31,-446.98 696.78,-442.22 686.41,-440.04 687.31,-446.98"/>
<text text-anchor="middle" x="493.67" y="-472.53" font-family="Times,serif" font-size="14.00">d</text>
</g>
<!-- {4} -->
<g id="node4" class="node">
<title>{4}</title>
<ellipse fill="none" stroke="black" cx="364.74" cy="-364.33" rx="21.6" ry="21.6"/>
<text text-anchor="middle" x="364.74" y="-360.06" font-family="Times,serif" font-size="12.00">{4}</text>
</g>
<!-- {3}&#45;&gt;{4} -->
<g id="edge2" class="edge">
<title>{3}&#45;&gt;{4}</title>
<path fill="none" stroke="black" d="M290.53,-477.43C298.05,-463.51 308.8,-444.23 319.14,-427.83 326.98,-415.41 336.23,-402.04 344.27,-390.8"/>
<polygon fill="black" stroke="black" points="347.06,-392.92 350.08,-382.76 341.38,-388.82 347.06,-392.92"/>
<text text-anchor="middle" x="322.14" y="-431.53" font-family="Times,serif" font-size="14.00">a</text>
</g>
<!-- {2} -->
<g id="node3" class="node">
<title>{2}</title>
<ellipse fill="none" stroke="black" cx="194.34" cy="-633.33" rx="21.6" ry="21.6"/>
<text text-anchor="middle" x="194.34" y="-629.06" font-family="Times,serif" font-size="12.00">{2}</text>
</g>
<!-- {2}&#45;&gt;E -->
<g id="edge1" class="edge">
<title>{2}&#45;&gt;E</title>
<path fill="none" stroke="black" d="M209.25,-649.23C224.53,-664.85 250.62,-686.33 278.54,-686.33 278.54,-686.33 278.54,-686.33 629.32,-686.33 657.89,-686.33 665.45,-671.67 680.41,-647.33 713.98,-592.71 719.71,-515.85 719.97,-472.49"/>
<polygon fill="black" stroke="black" points="723.47,-472.69 719.92,-462.71 716.47,-472.72 723.47,-472.69"/>
<text text-anchor="middle" x="450.69" y="-689.53" font-family="Times,serif" font-size="14.00">b</text>
</g>
<!-- {2}&#45;&gt;E -->
<g id="edge4" class="edge">
<title>{2}&#45;&gt;E</title>
<path fill="none" stroke="black" d="M216.2,-633.33C233.03,-633.33 257.31,-633.33 278.54,-633.33 278.54,-633.33 278.54,-633.33 629.32,-633.33 699.33,-633.33 714.86,-527.97 718.19,-472.54"/>
<polygon fill="black" stroke="black" points="721.67,-472.88 718.66,-462.72 714.68,-472.54 721.67,-472.88"/>
<text text-anchor="middle" x="450.69" y="-636.53" font-family="Times,serif" font-size="14.00">g</text>
</g>
<!-- {2}&#45;&gt;E -->
<g id="edge20" class="edge">
<title>{2}&#45;&gt;E</title>
<path fill="none" stroke="black" d="M209.25,-617.43C224.53,-601.82 250.62,-580.33 278.54,-580.33 278.54,-580.33 278.54,-580.33 629.32,-580.33 680.39,-580.33 703.63,-513.66 713.17,-472.01"/>
<polygon fill="black" stroke="black" points="716.59,-472.74 715.24,-462.23 709.75,-471.28 716.59,-472.74"/>
<text text-anchor="middle" x="450.69" y="-583.53" font-family="Times,serif" font-size="14.00">d</text>
</g>
<!-- {2}&#45;&gt;{3} -->
<g id="edge8" class="edge">
<title>{2}&#45;&gt;{3}</title>
<path fill="none" stroke="black" d="M202.99,-613C209.94,-595.6 221.05,-570.21 233.94,-549.83 240.53,-539.41 248.95,-528.8 256.7,-519.8"/>
<polygon fill="black" stroke="black" points="259.11,-522.36 263.12,-512.55 253.87,-517.72 259.11,-522.36"/>
<text text-anchor="middle" x="236.94" y="-553.53" font-family="Times,serif" font-size="14.00">a</text>
</g>
<!-- {4}&#45;&gt;E -->
<g id="edge12" class="edge">
<title>{4}&#45;&gt;E</title>
<path fill="none" stroke="black" d="M379.81,-380.23C395.24,-395.85 421.6,-417.33 449.69,-417.33 449.69,-417.33 449.69,-417.33 629.32,-417.33 649.58,-417.33 671.68,-422.69 688.88,-428.12"/>
<polygon fill="black" stroke="black" points="687.37,-431.3 697.96,-431.16 689.59,-424.67 687.37,-431.3"/>
<text text-anchor="middle" x="536.64" y="-420.53" font-family="Times,serif" font-size="14.00">d</text>
</g>
<!-- {4}&#45;&gt;E -->
<g id="edge30" class="edge">
<title>{4}&#45;&gt;E</title>
<path fill="none" stroke="black" d="M386.79,-364.33C403.77,-364.33 428.27,-364.33 449.69,-364.33 449.69,-364.33 449.69,-364.33 629.32,-364.33 659.95,-364.33 685.63,-390.39 701.55,-411.78"/>
<polygon fill="black" stroke="black" points="698.68,-413.78 707.3,-419.94 704.4,-409.75 698.68,-413.78"/>
<text text-anchor="middle" x="536.64" y="-367.53" font-family="Times,serif" font-size="14.00">g</text>
</g>
<!-- {4}&#45;&gt;E -->
<g id="edge31" class="edge">
<title>{4}&#45;&gt;E</title>
<path fill="none" stroke="black" d="M379.81,-348.43C395.24,-332.82 421.6,-311.33 449.69,-311.33 449.69,-311.33 449.69,-311.33 629.32,-311.33 676.04,-311.33 700.49,-369.24 711.49,-407.16"/>
<polygon fill="black" stroke="black" points="708.09,-408 714.08,-416.74 714.84,-406.17 708.09,-408"/>
<text text-anchor="middle" x="536.64" y="-314.53" font-family="Times,serif" font-size="14.00">b</text>
</g>
<!-- {5} -->
<g id="node9" class="node">
<title>{5}</title>
<ellipse fill="none" stroke="black" cx="450.69" cy="-227.33" rx="21.6" ry="21.6"/>
<text text-anchor="middle" x="450.69" y="-223.06" font-family="Times,serif" font-size="12.00">{5}</text>
</g>
<!-- {4}&#45;&gt;{5} -->
<g id="edge7" class="edge">
<title>{4}&#45;&gt;{5}</title>
<path fill="none" stroke="black" d="M373.21,-344.32C380.12,-326.9 391.28,-301.3 404.34,-280.83 411.02,-270.36 419.58,-259.74 427.46,-250.76"/>
<polygon fill="black" stroke="black" points="429.9,-253.27 434,-243.5 424.7,-248.58 429.9,-253.27"/>
<text text-anchor="middle" x="407.72" y="-284.53" font-family="Times,serif" font-size="14.00">a</text>
</g>
<!-- Start -->
<g id="node5" class="node">
<title>Start</title>
<ellipse fill="lightgrey" stroke="black" cx="22.02" cy="-879.33" rx="22.02" ry="22.02"/>
<text text-anchor="middle" x="22.02" y="-875.06" font-family="Times,serif" font-size="12.00">Start</text>
</g>
<!-- Start&#45;&gt;E -->
<g id="edge10" class="edge">
<title>Start&#45;&gt;E</title>
<path fill="none" stroke="black" d="M32.63,-898.7C45.91,-922.37 72.27,-959.33 107.39,-959.33 107.39,-959.33 107.39,-959.33 629.32,-959.33 657.89,-959.33 666.73,-945.41 680.41,-920.33 701.73,-881.24 714.26,-575.32 717.89,-472.74"/>
<polygon fill="black" stroke="black" points="721.39,-472.89 718.24,-462.78 714.39,-472.65 721.39,-472.89"/>
<text text-anchor="middle" x="364.74" y="-962.53" font-family="Times,serif" font-size="14.00">a</text>
</g>
<!-- Start&#45;&gt;E -->
<g id="edge14" class="edge">
<title>Start&#45;&gt;E</title>
<path fill="none" stroke="black" d="M42.24,-889.23C58.99,-896.94 84.17,-906.33 107.39,-906.33 107.39,-906.33 107.39,-906.33 629.32,-906.33 657.89,-906.33 666.6,-892.34 680.41,-867.33 717.77,-799.65 719.93,-561.04 719.4,-472.62"/>
<polygon fill="black" stroke="black" points="722.9,-472.66 719.33,-462.69 715.91,-472.71 722.9,-472.66"/>
<text text-anchor="middle" x="364.74" y="-909.53" font-family="Times,serif" font-size="14.00">g</text>
</g>
<!-- Start&#45;&gt;E -->
<g id="edge27" class="edge">
<title>Start&#45;&gt;E</title>
<path fill="none" stroke="black" d="M42.28,-869.8C59.05,-862.38 84.25,-853.33 107.39,-853.33 107.39,-853.33 107.39,-853.33 629.32,-853.33 661.72,-853.33 666.57,-830.63 680.41,-801.33 707.76,-743.43 716,-550.34 718.24,-472.39"/>
<polygon fill="black" stroke="black" points="721.74,-472.51 718.51,-462.42 714.74,-472.32 721.74,-472.51"/>
<text text-anchor="middle" x="364.74" y="-856.53" font-family="Times,serif" font-size="14.00">d</text>
</g>
<!-- {1} -->
<g id="node6" class="node">
<title>{1}</title>
<ellipse fill="none" stroke="black" cx="108.39" cy="-769.33" rx="21.6" ry="21.6"/>
<text text-anchor="middle" x="108.39" y="-765.06" font-family="Times,serif" font-size="12.00">{1}</text>
</g>
<!-- Start&#45;&gt;{1} -->
<g id="edge32" class="edge">
<title>Start&#45;&gt;{1}</title>
<path fill="none" stroke="black" d="M34.88,-861.2C42.4,-849.95 52.47,-835.32 62.04,-822.83 69.59,-812.97 78.33,-802.48 86.1,-793.42"/>
<polygon fill="black" stroke="black" points="88.58,-795.9 92.49,-786.06 83.29,-791.32 88.58,-795.9"/>
<text text-anchor="middle" x="65.42" y="-826.53" font-family="Times,serif" font-size="14.00">b</text>
</g>
<!-- {1}&#45;&gt;E -->
<g id="edge11" class="edge">
<title>{1}&#45;&gt;E</title>
<path fill="none" stroke="black" d="M126.08,-781.99C142.34,-793.04 168.22,-807.33 193.34,-807.33 193.34,-807.33 193.34,-807.33 323.14,-807.33 379.39,-807.33 393.44,-809.33 449.69,-809.33 449.69,-809.33 449.69,-809.33 629.32,-809.33 654.8,-809.33 665.9,-804.27 680.41,-783.33 714.92,-733.51 719.01,-548.64 719.19,-472.46"/>
<polygon fill="black" stroke="black" points="722.69,-472.72 719.19,-462.72 715.69,-472.72 722.69,-472.72"/>
<text text-anchor="middle" x="407.72" y="-812.53" font-family="Times,serif" font-size="14.00">a</text>
</g>
<!-- {1}&#45;&gt;E -->
<g id="edge22" class="edge">
<title>{1}&#45;&gt;E</title>
<path fill="none" stroke="black" d="M130.44,-769.33C147.42,-769.33 171.92,-769.33 193.34,-769.33 193.34,-769.33 193.34,-769.33 629.32,-769.33 654.41,-769.33 665.66,-765.62 680.41,-745.33 711.66,-702.34 717.65,-542.02 718.77,-472.19"/>
<polygon fill="black" stroke="black" points="722.26,-472.58 718.9,-462.53 715.26,-472.48 722.26,-472.58"/>
<text text-anchor="middle" x="407.72" y="-772.53" font-family="Times,serif" font-size="14.00">g</text>
</g>
<!-- {1}&#45;&gt;E -->
<g id="edge35" class="edge">
<title>{1}&#45;&gt;E</title>
<path fill="none" stroke="black" d="M125.97,-756.01C142.16,-744.38 167.99,-729.33 193.34,-729.33 193.34,-729.33 193.34,-729.33 365.74,-729.33 422.16,-729.33 436.25,-731.33 492.67,-731.33 492.67,-731.33 492.67,-731.33 629.32,-731.33 665.72,-731.33 666.05,-700.77 680.41,-667.33 708.4,-602.15 716.14,-518.32 718.25,-472.64"/>
<polygon fill="black" stroke="black" points="721.74,-472.99 718.63,-462.86 714.74,-472.72 721.74,-472.99"/>
<text text-anchor="middle" x="407.72" y="-733.53" font-family="Times,serif" font-size="14.00">d</text>
</g>
<!-- {1}&#45;&gt;{2} -->
<g id="edge36" class="edge">
<title>{1}&#45;&gt;{2}</title>
<path fill="none" stroke="black" d="M119.18,-750.17C126.69,-735.82 137.51,-715.81 147.99,-698.83 156.11,-685.69 165.78,-671.54 174.1,-659.77"/>
<polygon fill="black" stroke="black" points="176.87,-661.92 179.83,-651.75 171.17,-657.85 176.87,-661.92"/>
<text text-anchor="middle" x="151.37" y="-702.53" font-family="Times,serif" font-size="14.00">b</text>
</g>
<!-- Final -->
<g id="node7" class="node">
<title>Final</title>
<ellipse fill="none" stroke="black" cx="628.32" cy="-27.33" rx="23.33" ry="23.33"/>
<ellipse fill="none" stroke="black" cx="628.32" cy="-27.33" rx="27.33" ry="27.33"/>
<text text-anchor="middle" x="628.32" y="-23.06" font-family="Times,serif" font-size="12.00">Final</text>
</g>
<!-- Final&#45;&gt;E -->
<g id="edge13" class="edge">
<title>Final&#45;&gt;E</title>
<path fill="none" stroke="black" d="M648.62,-46.14C659.87,-58.34 673.23,-75.2 680.41,-92.83 703.37,-149.24 714.08,-331.07 717.62,-406.29"/>
<polygon fill="black" stroke="black" points="714.1,-406.07 718.05,-415.9 721.09,-405.75 714.1,-406.07"/>
<text text-anchor="middle" x="677.03" y="-96.53" font-family="Times,serif" font-size="14.00">a</text>
</g>
<!-- Final&#45;&gt;E -->
<g id="edge18" class="edge">
<title>Final&#45;&gt;E</title>
<path fill="none" stroke="black" d="M654.04,-37.72C663.88,-43.14 674.29,-50.77 680.41,-60.83 715.4,-118.42 719.13,-324.63 719.21,-405.99"/>
<polygon fill="black" stroke="black" points="715.71,-405.97 719.19,-415.98 722.71,-405.98 715.71,-405.97"/>
<text text-anchor="middle" x="677.03" y="-64.53" font-family="Times,serif" font-size="14.00">b</text>
</g>
<!-- Final&#45;&gt;E -->
<g id="edge21" class="edge">
<title>Final&#45;&gt;E</title>
<path fill="none" stroke="black" d="M655.86,-23.89C664.79,-24.21 674.08,-26.42 680.41,-32.83 706.45,-59.2 715.7,-313.72 718.22,-406.07"/>
<polygon fill="black" stroke="black" points="714.72,-406.08 718.48,-415.98 721.71,-405.89 714.72,-406.08"/>
<text text-anchor="middle" x="677.03" y="-36.53" font-family="Times,serif" font-size="14.00">g</text>
</g>
<!-- Final&#45;&gt;E -->
<g id="edge33" class="edge">
<title>Final&#45;&gt;E</title>
<path fill="none" stroke="black" d="M650.14,-10.16C660.25,-3.95 672,-0.15 680.41,-7.83 709.65,-34.57 716.9,-309.69 718.56,-406.14"/>
<polygon fill="black" stroke="black" points="715.05,-406.05 718.71,-415.99 722.05,-405.94 715.05,-406.05"/>
<text text-anchor="middle" x="677.03" y="-11.53" font-family="Times,serif" font-size="14.00">d</text>
</g>
<!-- {6} -->
<g id="node8" class="node">
<title>{6}</title>
<ellipse fill="none" stroke="black" cx="536.64" cy="-95.33" rx="21.6" ry="21.6"/>
<text text-anchor="middle" x="536.64" y="-91.06" font-family="Times,serif" font-size="12.00">{6}</text>
</g>
<!-- {6}&#45;&gt;E -->
<g id="edge19" class="edge">
<title>{6}&#45;&gt;E</title>
<path fill="none" stroke="black" d="M556.9,-103.96C592.33,-120.24 665.58,-155.96 680.41,-179.33 703.95,-216.46 713.92,-344.96 717.41,-406.27"/>
<polygon fill="black" stroke="black" points="713.91,-406.29 717.94,-416.08 720.89,-405.91 713.91,-406.29"/>
<text text-anchor="middle" x="628.32" y="-159.53" font-family="Times,serif" font-size="14.00">a</text>
</g>
<!-- {6}&#45;&gt;E -->
<g id="edge23" class="edge">
<title>{6}&#45;&gt;E</title>
<path fill="none" stroke="black" d="M558.26,-91.15C583.78,-87.2 627.3,-84.67 655.66,-105.83 703.4,-141.47 715.24,-328.84 718.11,-406.04"/>
<polygon fill="black" stroke="black" points="714.61,-406.06 718.45,-415.93 721.61,-405.82 714.61,-406.06"/>
<text text-anchor="middle" x="628.32" y="-109.53" font-family="Times,serif" font-size="14.00">b</text>
</g>
<!-- {6}&#45;&gt;Final -->
<g id="edge5" class="edge">
<title>{6}&#45;&gt;Final</title>
<path fill="none" stroke="black" d="M554.07,-82.14C560.89,-76.72 568.9,-70.42 576.24,-64.83 582.8,-59.84 589.89,-54.55 596.65,-49.58"/>
<polygon fill="black" stroke="black" points="598.36,-52.67 604.35,-43.93 594.22,-47.02 598.36,-52.67"/>
<text text-anchor="middle" x="579.62" y="-68.53" font-family="Times,serif" font-size="14.00">d</text>
</g>
<!-- {6}&#45;&gt;Final -->
<g id="edge28" class="edge">
<title>{6}&#45;&gt;Final</title>
<path fill="none" stroke="black" d="M546.89,-76.03C553.5,-64.21 563.47,-49.69 576.24,-40.83 580.42,-37.93 585.19,-35.65 590.1,-33.86"/>
<polygon fill="black" stroke="black" points="590.83,-37.3 599.43,-31.11 588.85,-30.58 590.83,-37.3"/>
<text text-anchor="middle" x="579.62" y="-44.53" font-family="Times,serif" font-size="14.00">g</text>
</g>
<!-- {5}&#45;&gt;E -->
<g id="edge3" class="edge">
<title>{5}&#45;&gt;E</title>
<path fill="none" stroke="black" d="M471.25,-234.69C477.32,-236.9 484.06,-239.29 490.29,-241.33 573.98,-268.81 618.78,-234.4 680.41,-297.33 708.78,-326.31 716.8,-373.94 718.81,-405.95"/>
<polygon fill="black" stroke="black" points="715.31,-406.04 719.25,-415.88 722.3,-405.73 715.31,-406.04"/>
<text text-anchor="middle" x="579.62" y="-258.53" font-family="Times,serif" font-size="14.00">g</text>
</g>
<!-- {5}&#45;&gt;E -->
<g id="edge17" class="edge">
<title>{5}&#45;&gt;E</title>
<path fill="none" stroke="black" d="M472.35,-224.19C511.78,-219.34 598.88,-214.3 655.66,-253.33 705.12,-287.34 716.52,-362.47 718.81,-406.13"/>
<polygon fill="black" stroke="black" points="715.31,-406.17 719.18,-416.03 722.3,-405.91 715.31,-406.17"/>
<text text-anchor="middle" x="579.62" y="-229.53" font-family="Times,serif" font-size="14.00">d</text>
</g>
<!-- {5}&#45;&gt;E -->
<g id="edge29" class="edge">
<title>{5}&#45;&gt;E</title>
<path fill="none" stroke="black" d="M471.3,-220.1C510.81,-206.91 600.87,-184.01 655.66,-226.33 672.5,-239.34 672.47,-247.58 680.41,-267.33 699.11,-313.9 709.69,-371.37 714.88,-406.68"/>
<polygon fill="black" stroke="black" points="711.37,-406.84 716.22,-416.26 718.3,-405.87 711.37,-406.84"/>
<text text-anchor="middle" x="579.62" y="-205.53" font-family="Times,serif" font-size="14.00">b</text>
</g>
<!-- {5}&#45;&gt;{6} -->
<g id="edge9" class="edge">
<title>{5}&#45;&gt;{6}</title>
<path fill="none" stroke="black" d="M461.65,-208.41C469.15,-194.47 479.89,-175.19 490.29,-158.83 498.36,-146.15 507.95,-132.54 516.23,-121.18"/>
<polygon fill="black" stroke="black" points="518.81,-123.59 521.92,-113.46 513.17,-119.43 518.81,-123.59"/>
<text text-anchor="middle" x="493.67" y="-162.53" font-family="Times,serif" font-size="14.00">a</text>
</g>
</g>
</svg>
