<?xml version="1.0" encoding="UTF-8" standalone="no"?>
<!DOCTYPE svg PUBLIC "-//W3C//DTD SVG 1.1//EN"
 "http://www.w3.org/Graphics/SVG/1.1/DTD/svg11.dtd">
<!-- Generated by graphviz version 9.0.0 (20230911.1827)
 -->
<!-- Title: G Pages: 1 -->
<svg width="492pt" height="193pt"
 viewBox="0.00 0.00 491.76 192.59" xmlns="http://www.w3.org/2000/svg" xmlns:xlink="http://www.w3.org/1999/xlink">
<g id="graph0" class="graph" transform="scale(1 1) rotate(0) translate(4 188.59)">
<title>G</title>
<polygon fill="white" stroke="none" points="-4,4 -4,-188.59 487.76,-188.59 487.76,4 -4,4"/>
<!-- Start -->
<g id="node1" class="node">
<title>Start</title>
<ellipse fill="lightgrey" stroke="black" cx="22.02" cy="-123.09" rx="22.02" ry="22.02"/>
<text text-anchor="middle" x="22.02" y="-118.81" font-family="Times,serif" font-size="12.00">Start</text>
</g>
<!-- Start&#45;&gt;Start -->
<g id="edge7" class="edge">
<title>Start&#45;&gt;Start</title>
<path fill="none" stroke="black" d="M14.08,-144.09C13.1,-154.19 15.75,-163.11 22.02,-163.11 25.74,-163.11 28.19,-159.96 29.36,-155.29"/>
<polygon fill="black" stroke="black" points="32.84,-155.77 29.88,-145.6 25.85,-155.4 32.84,-155.77"/>
<text text-anchor="middle" x="22.02" y="-166.31" font-family="Times,serif" font-size="14.00">a</text>
</g>
<!-- {4} -->
<g id="node6" class="node">
<title>{4}</title>
<ellipse fill="none" stroke="black" cx="108.39" cy="-123.09" rx="21.6" ry="21.6"/>
<text text-anchor="middle" x="108.39" y="-118.81" font-family="Times,serif" font-size="12.00">{4}</text>
</g>
<!-- Start&#45;&gt;{4} -->
<g id="edge9" class="edge">
<title>Start&#45;&gt;{4}</title>
<path fill="none" stroke="black" d="M44.31,-123.09C53.57,-123.09 64.63,-123.09 74.89,-123.09"/>
<polygon fill="black" stroke="black" points="74.89,-126.59 84.89,-123.09 74.89,-119.59 74.89,-126.59"/>
<text text-anchor="middle" x="65.42" y="-126.29" font-family="Times,serif" font-size="14.00">b</text>
</g>
<!-- {6} -->
<g id="node2" class="node">
<title>{6}</title>
<ellipse fill="none" stroke="black" cx="279.54" cy="-42.09" rx="21.6" ry="21.6"/>
<text text-anchor="middle" x="279.54" y="-37.81" font-family="Times,serif" font-size="12.00">{6}</text>
</g>
<!-- Final -->
<g id="node3" class="node">
<title>Final</title>
<ellipse fill="none" stroke="black" cx="371.22" cy="-78.09" rx="23.33" ry="23.33"/>
<ellipse fill="none" stroke="black" cx="371.22" cy="-78.09" rx="27.33" ry="27.33"/>
<text text-anchor="middle" x="371.22" y="-73.81" font-family="Times,serif" font-size="12.00">Final</text>
</g>
<!-- {6}&#45;&gt;Final -->
<g id="edge12" class="edge">
<title>{6}&#45;&gt;Final</title>
<path fill="none" stroke="black" d="M300,-49.9C310.18,-53.98 322.95,-59.11 334.81,-63.87"/>
<polygon fill="black" stroke="black" points="333.35,-67.06 343.93,-67.53 335.96,-60.56 333.35,-67.06"/>
<text text-anchor="middle" x="322.52" y="-63.29" font-family="Times,serif" font-size="14.00">a</text>
</g>
<!-- E -->
<g id="node4" class="node">
<title>E</title>
<ellipse fill="none" stroke="black" cx="462.16" cy="-47.09" rx="21.6" ry="21.6"/>
<text text-anchor="middle" x="462.16" y="-42.81" font-family="Times,serif" font-size="12.00">E</text>
</g>
<!-- {6}&#45;&gt;E -->
<g id="edge8" class="edge">
<title>{6}&#45;&gt;E</title>
<path fill="none" stroke="black" d="M300.54,-35.48C312.88,-31.75 329.12,-27.48 343.89,-25.59 367.99,-22.5 374.59,-21.59 398.56,-25.59 409.54,-27.42 421.19,-30.95 431.41,-34.62"/>
<polygon fill="black" stroke="black" points="429.85,-37.77 440.44,-38.06 432.34,-31.23 429.85,-37.77"/>
<text text-anchor="middle" x="371.22" y="-29.29" font-family="Times,serif" font-size="14.00">b</text>
</g>
<!-- Final&#45;&gt;Final -->
<g id="edge10" class="edge">
<title>Final&#45;&gt;Final</title>
<path fill="none" stroke="black" d="M362.22,-104.17C361.71,-114.64 364.71,-123.42 371.22,-123.42 375.09,-123.42 377.72,-120.32 379.11,-115.62"/>
<polygon fill="black" stroke="black" points="382.59,-115.97 380.08,-105.68 375.63,-115.29 382.59,-115.97"/>
<text text-anchor="middle" x="371.22" y="-126.62" font-family="Times,serif" font-size="14.00">b</text>
</g>
<!-- Final&#45;&gt;E -->
<g id="edge1" class="edge">
<title>Final&#45;&gt;E</title>
<path fill="none" stroke="black" d="M397.47,-69.29C407.76,-65.7 419.75,-61.52 430.54,-57.76"/>
<polygon fill="black" stroke="black" points="431.5,-61.13 439.79,-54.54 429.19,-54.52 431.5,-61.13"/>
<text text-anchor="middle" x="419.56" y="-66.29" font-family="Times,serif" font-size="14.00">a</text>
</g>
<!-- E&#45;&gt;E -->
<g id="edge6" class="edge">
<title>E&#45;&gt;E</title>
<path fill="none" stroke="black" d="M458.22,-68.68C457.85,-78.33 459.16,-86.69 462.16,-86.69 463.84,-86.69 464.99,-84.04 465.61,-80.01"/>
<polygon fill="black" stroke="black" points="469.1,-80.33 466.02,-70.19 462.11,-80.03 469.1,-80.33"/>
<text text-anchor="middle" x="462.16" y="-89.89" font-family="Times,serif" font-size="14.00">a</text>
</g>
<!-- E&#45;&gt;E -->
<g id="edge11" class="edge">
<title>E&#45;&gt;E</title>
<path fill="none" stroke="black" d="M455.44,-68.06C452.47,-85.91 454.71,-104.69 462.16,-104.69 468.03,-104.69 470.67,-93 470.06,-79.29"/>
<polygon fill="black" stroke="black" points="473.56,-79.14 469.03,-69.56 466.6,-79.87 473.56,-79.14"/>
<text text-anchor="middle" x="462.16" y="-107.89" font-family="Times,serif" font-size="14.00">b</text>
</g>
<!-- {5} -->
<g id="node5" class="node">
<title>{5}</title>
<ellipse fill="none" stroke="black" cx="194.34" cy="-42.09" rx="21.6" ry="21.6"/>
<text text-anchor="middle" x="194.34" y="-37.81" font-family="Times,serif" font-size="12.00">{5}</text>
</g>
<!-- {5}&#45;&gt;{6} -->
<g id="edge2" class="edge">
<title>{5}&#45;&gt;{6}</title>
<path fill="none" stroke="black" d="M216.34,-42.09C225.4,-42.09 236.21,-42.09 246.26,-42.09"/>
<polygon fill="black" stroke="black" points="246.04,-45.59 256.04,-42.09 246.04,-38.59 246.04,-45.59"/>
<text text-anchor="middle" x="236.94" y="-45.29" font-family="Times,serif" font-size="14.00">a</text>
</g>
<!-- {5}&#45;&gt;E -->
<g id="edge5" class="edge">
<title>{5}&#45;&gt;E</title>
<path fill="none" stroke="black" d="M213.18,-30.73C225.29,-23.67 241.96,-15.17 257.94,-11.09 329.12,7.11 354.64,1.91 422.56,-26.09 426.01,-27.51 429.56,-29.16 433.04,-30.9"/>
<polygon fill="black" stroke="black" points="431.28,-33.93 441.76,-35.51 434.56,-27.74 431.28,-33.93"/>
<text text-anchor="middle" x="322.52" y="-4.29" font-family="Times,serif" font-size="14.00">b</text>
</g>
<!-- {4}&#45;&gt;E -->
<g id="edge4" class="edge">
<title>{4}&#45;&gt;E</title>
<path fill="none" stroke="black" d="M124.79,-137.33C140.7,-150.51 166.88,-168.09 193.34,-168.09 193.34,-168.09 193.34,-168.09 372.22,-168.09 416.45,-168.09 441.11,-114.95 452.72,-79.11"/>
<polygon fill="black" stroke="black" points="456.05,-80.2 455.6,-69.61 449.35,-78.17 456.05,-80.2"/>
<text text-anchor="middle" x="279.54" y="-171.29" font-family="Times,serif" font-size="14.00">a</text>
</g>
<!-- {4}&#45;&gt;{5} -->
<g id="edge3" class="edge">
<title>{4}&#45;&gt;{5}</title>
<path fill="none" stroke="black" d="M124.4,-108.61C137.09,-96.36 155.5,-78.6 170.09,-64.52"/>
<polygon fill="black" stroke="black" points="172.32,-67.23 177.09,-57.77 167.46,-62.19 172.32,-67.23"/>
<text text-anchor="middle" x="151.37" y="-87.29" font-family="Times,serif" font-size="14.00">b</text>
</g>
</g>
</svg>
