<?xml version="1.0" encoding="UTF-8" standalone="no"?>
<!DOCTYPE svg PUBLIC "-//W3C//DTD SVG 1.1//EN"
 "http://www.w3.org/Graphics/SVG/1.1/DTD/svg11.dtd">
<!-- Generated by graphviz version 9.0.0 (20230911.1827)
 -->
<!-- Title: G Pages: 1 -->
<svg width="667pt" height="271pt"
 viewBox="0.00 0.00 666.69 271.12" xmlns="http://www.w3.org/2000/svg" xmlns:xlink="http://www.w3.org/1999/xlink">
<g id="graph0" class="graph" transform="scale(1 1) rotate(0) translate(4 267.12)">
<title>G</title>
<polygon fill="white" stroke="none" points="-4,4 -4,-267.12 662.69,-267.12 662.69,4 -4,4"/>
<!-- Start -->
<g id="node1" class="node">
<title>Start</title>
<ellipse fill="lightgrey" stroke="black" cx="22.02" cy="-22.02" rx="22.02" ry="22.02"/>
<text text-anchor="middle" x="22.02" y="-17.75" font-family="Times,serif" font-size="12.00">Start</text>
</g>
<!-- 1 -->
<g id="node2" class="node">
<title>1</title>
<ellipse fill="none" stroke="black" cx="107.64" cy="-62.02" rx="21.6" ry="21.6"/>
<text text-anchor="middle" x="107.64" y="-57.75" font-family="Times,serif" font-size="12.00">1</text>
</g>
<!-- Start&#45;&gt;1 -->
<g id="edge1" class="edge">
<title>Start&#45;&gt;1</title>
<path fill="none" stroke="black" d="M42.41,-31.3C52.83,-36.28 65.88,-42.52 77.5,-48.08"/>
<polygon fill="black" stroke="black" points="75.74,-51.12 86.27,-52.28 78.76,-44.81 75.74,-51.12"/>
<text text-anchor="middle" x="65.04" y="-47.22" font-family="Times,serif" font-size="14.00">a</text>
</g>
<!-- 2 -->
<g id="node3" class="node">
<title>2</title>
<ellipse fill="none" stroke="black" cx="193.59" cy="-22.02" rx="21.6" ry="21.6"/>
<text text-anchor="middle" x="193.59" y="-17.75" font-family="Times,serif" font-size="12.00">2</text>
</g>
<!-- Start&#45;&gt;2 -->
<g id="edge2" class="edge">
<title>Start&#45;&gt;2</title>
<path fill="none" stroke="black" d="M44.26,-18.86C56.45,-17.2 72.07,-15.35 86.04,-14.52 105.21,-13.38 110.07,-13.39 129.24,-14.52 139.49,-15.13 150.63,-16.28 160.66,-17.5"/>
<polygon fill="black" stroke="black" points="159.95,-20.93 170.32,-18.74 160.85,-13.99 159.95,-20.93"/>
<text text-anchor="middle" x="107.64" y="-18.22" font-family="Times,serif" font-size="14.00">b</text>
</g>
<!-- 1&#45;&gt;1 -->
<g id="edge3" class="edge">
<title>1&#45;&gt;1</title>
<path fill="none" stroke="black" d="M99.89,-82.4C98.82,-92.56 101.4,-101.62 107.64,-101.62 111.35,-101.62 113.76,-98.43 114.89,-93.7"/>
<polygon fill="black" stroke="black" points="118.38,-94.05 115.32,-83.91 111.38,-93.74 118.38,-94.05"/>
<text text-anchor="middle" x="107.64" y="-104.82" font-family="Times,serif" font-size="14.00">a</text>
</g>
<!-- 1&#45;&gt;2 -->
<g id="edge4" class="edge">
<title>1&#45;&gt;2</title>
<path fill="none" stroke="black" d="M127.69,-52.94C138.21,-47.93 151.5,-41.6 163.31,-35.97"/>
<polygon fill="black" stroke="black" points="164.73,-39.17 172.25,-31.71 161.72,-32.85 164.73,-39.17"/>
<text text-anchor="middle" x="150.62" y="-47.22" font-family="Times,serif" font-size="14.00">b</text>
</g>
<!-- 3 -->
<g id="node4" class="node">
<title>3</title>
<ellipse fill="none" stroke="black" cx="279.54" cy="-56.02" rx="21.6" ry="21.6"/>
<text text-anchor="middle" x="279.54" y="-51.75" font-family="Times,serif" font-size="12.00">3</text>
</g>
<!-- 2&#45;&gt;3 -->
<g id="edge6" class="edge">
<title>2&#45;&gt;3</title>
<path fill="none" stroke="black" d="M214.06,-29.91C224.34,-34.07 237.17,-39.27 248.68,-43.93"/>
<polygon fill="black" stroke="black" points="247.19,-47.1 257.77,-47.61 249.82,-40.61 247.19,-47.1"/>
<text text-anchor="middle" x="236.57" y="-44.22" font-family="Times,serif" font-size="14.00">b</text>
</g>
<!-- 7 -->
<g id="node8" class="node">
<title>7</title>
<ellipse fill="none" stroke="black" cx="637.09" cy="-97.02" rx="21.6" ry="21.6"/>
<text text-anchor="middle" x="637.09" y="-92.75" font-family="Times,serif" font-size="12.00">7</text>
</g>
<!-- 2&#45;&gt;7 -->
<g id="edge5" class="edge">
<title>2&#45;&gt;7</title>
<path fill="none" stroke="black" d="M214.74,-15.97C231.62,-11.44 256.43,-6.02 278.54,-6.02 278.54,-6.02 278.54,-6.02 548.89,-6.02 583.47,-6.02 608.58,-40.69 622.74,-67.24"/>
<polygon fill="black" stroke="black" points="619.49,-68.57 627.12,-75.92 625.75,-65.42 619.49,-68.57"/>
<text text-anchor="middle" x="407.34" y="-9.22" font-family="Times,serif" font-size="14.00">a</text>
</g>
<!-- 4 -->
<g id="node5" class="node">
<title>4</title>
<ellipse fill="none" stroke="black" cx="364.74" cy="-102.02" rx="21.6" ry="21.6"/>
<text text-anchor="middle" x="364.74" y="-97.75" font-family="Times,serif" font-size="12.00">4</text>
</g>
<!-- 3&#45;&gt;4 -->
<g id="edge7" class="edge">
<title>3&#45;&gt;4</title>
<path fill="none" stroke="black" d="M299.01,-66.23C309.67,-72.13 323.31,-79.67 335.31,-86.3"/>
<polygon fill="black" stroke="black" points="333.56,-89.33 344,-91.11 336.94,-83.21 333.56,-89.33"/>
<text text-anchor="middle" x="322.14" y="-84.22" font-family="Times,serif" font-size="14.00">a</text>
</g>
<!-- 3&#45;&gt;7 -->
<g id="edge8" class="edge">
<title>3&#45;&gt;7</title>
<path fill="none" stroke="black" d="M301.38,-54.46C318.2,-53.34 342.48,-52.02 363.74,-52.02 363.74,-52.02 363.74,-52.02 548.89,-52.02 571.82,-52.02 594.74,-64.46 611.32,-76.26"/>
<polygon fill="black" stroke="black" points="609.01,-78.89 619.1,-82.12 613.22,-73.3 609.01,-78.89"/>
<text text-anchor="middle" x="453.94" y="-55.22" font-family="Times,serif" font-size="14.00">b</text>
</g>
<!-- 5 -->
<g id="node6" class="node">
<title>5</title>
<ellipse fill="none" stroke="black" cx="453.94" cy="-151.02" rx="21.6" ry="21.6"/>
<ellipse fill="none" stroke="black" cx="453.94" cy="-151.02" rx="25.6" ry="25.6"/>
<text text-anchor="middle" x="453.94" y="-146.75" font-family="Times,serif" font-size="12.00">5</text>
</g>
<!-- 4&#45;&gt;5 -->
<g id="edge9" class="edge">
<title>4&#45;&gt;5</title>
<path fill="none" stroke="black" d="M384.23,-112.41C394.94,-118.43 408.7,-126.16 421.09,-133.12"/>
<polygon fill="black" stroke="black" points="419.33,-136.15 429.76,-138 422.76,-130.05 419.33,-136.15"/>
<text text-anchor="middle" x="407.34" y="-129.22" font-family="Times,serif" font-size="14.00">a</text>
</g>
<!-- 4&#45;&gt;7 -->
<g id="edge10" class="edge">
<title>4&#45;&gt;7</title>
<path fill="none" stroke="black" d="M386.51,-101.64C433.39,-100.77 547.72,-98.65 603.88,-97.62"/>
<polygon fill="black" stroke="black" points="603.81,-101.12 613.74,-97.43 603.68,-94.12 603.81,-101.12"/>
<text text-anchor="middle" x="500.92" y="-102.22" font-family="Times,serif" font-size="14.00">b</text>
</g>
<!-- 6 -->
<g id="node7" class="node">
<title>6</title>
<ellipse fill="none" stroke="black" cx="547.89" cy="-203.02" rx="21.6" ry="21.6"/>
<ellipse fill="none" stroke="black" cx="547.89" cy="-203.02" rx="25.6" ry="25.6"/>
<text text-anchor="middle" x="547.89" y="-198.75" font-family="Times,serif" font-size="12.00">6</text>
</g>
<!-- 5&#45;&gt;6 -->
<g id="edge12" class="edge">
<title>5&#45;&gt;6</title>
<path fill="none" stroke="black" d="M476.73,-163.34C488.21,-169.84 502.51,-177.92 515.19,-185.1"/>
<polygon fill="black" stroke="black" points="513.19,-187.98 523.62,-189.86 516.64,-181.89 513.19,-187.98"/>
<text text-anchor="middle" x="500.92" y="-181.22" font-family="Times,serif" font-size="14.00">b</text>
</g>
<!-- 5&#45;&gt;7 -->
<g id="edge11" class="edge">
<title>5&#45;&gt;7</title>
<path fill="none" stroke="black" d="M479.06,-144.84C507.54,-137.4 556.25,-124.26 597.49,-111.02 600.22,-110.14 603.05,-109.2 605.87,-108.22"/>
<polygon fill="black" stroke="black" points="606.87,-111.58 615.12,-104.93 604.53,-104.98 606.87,-111.58"/>
<text text-anchor="middle" x="547.89" y="-135.22" font-family="Times,serif" font-size="14.00">a</text>
</g>
<!-- 6&#45;&gt;6 -->
<g id="edge14" class="edge">
<title>6&#45;&gt;6</title>
<path fill="none" stroke="black" d="M539.26,-227.23C538.55,-237.68 541.43,-246.62 547.89,-246.62 551.83,-246.62 554.44,-243.3 555.71,-238.34"/>
<polygon fill="black" stroke="black" points="559.17,-238.97 556.41,-228.74 552.19,-238.46 559.17,-238.97"/>
<text text-anchor="middle" x="547.89" y="-249.82" font-family="Times,serif" font-size="14.00">b</text>
</g>
<!-- 6&#45;&gt;7 -->
<g id="edge13" class="edge">
<title>6&#45;&gt;7</title>
<path fill="none" stroke="black" d="M567.93,-186.95C577.36,-178.53 588.59,-167.75 597.49,-157.02 605.55,-147.29 613.32,-135.79 619.75,-125.48"/>
<polygon fill="black" stroke="black" points="622.72,-127.33 624.9,-116.96 616.73,-123.7 622.72,-127.33"/>
<text text-anchor="middle" x="594.49" y="-166.22" font-family="Times,serif" font-size="14.00">a</text>
</g>
<!-- 7&#45;&gt;7 -->
<g id="edge15" class="edge">
<title>7&#45;&gt;7</title>
<path fill="none" stroke="black" d="M633.16,-118.61C632.78,-128.27 634.1,-136.62 637.09,-136.62 638.78,-136.62 639.93,-133.98 640.55,-129.95"/>
<polygon fill="black" stroke="black" points="644.04,-130.26 640.96,-120.12 637.04,-129.97 644.04,-130.26"/>
<text text-anchor="middle" x="637.09" y="-139.82" font-family="Times,serif" font-size="14.00">a</text>
</g>
<!-- 7&#45;&gt;7 -->
<g id="edge16" class="edge">
<title>7&#45;&gt;7</title>
<path fill="none" stroke="black" d="M630.37,-117.99C627.4,-135.85 629.64,-154.62 637.09,-154.62 642.97,-154.62 645.6,-142.93 644.99,-129.23"/>
<polygon fill="black" stroke="black" points="648.5,-129.07 643.97,-119.49 641.53,-129.81 648.5,-129.07"/>
<text text-anchor="middle" x="637.09" y="-157.82" font-family="Times,serif" font-size="14.00">b</text>
</g>
</g>
</svg>
