<?xml version="1.0" encoding="UTF-8" standalone="no"?>
<!DOCTYPE svg PUBLIC "-//W3C//DTD SVG 1.1//EN"
 "http://www.w3.org/Graphics/SVG/1.1/DTD/svg11.dtd">
<!-- Generated by graphviz version 9.0.0 (20230911.1827)
 -->
<!-- Title: G Pages: 1 -->
<svg width="463pt" height="202pt"
 viewBox="0.00 0.00 463.23 201.66" xmlns="http://www.w3.org/2000/svg" xmlns:xlink="http://www.w3.org/1999/xlink">
<g id="graph0" class="graph" transform="scale(1 1) rotate(0) translate(4 197.66)">
<title>G</title>
<polygon fill="white" stroke="none" points="-4,4 -4,-197.66 459.23,-197.66 459.23,4 -4,4"/>
<!-- {8, 9, 7}{9, 6, 7} -->
<g id="node1" class="node">
<title>{8, 9, 7}{9, 6, 7}</title>
<ellipse fill="none" stroke="black" cx="392.9" cy="-62.33" rx="58.33" ry="58.33"/>
<ellipse fill="none" stroke="black" cx="392.9" cy="-62.33" rx="62.33" ry="62.33"/>
<text text-anchor="middle" x="392.9" y="-58.06" font-family="Times,serif" font-size="12.00">{8, 9, 7}{9, 6, 7}</text>
</g>
<!-- {8, 9, 7}{9, 6, 7}&#45;&gt;{8, 9, 7}{9, 6, 7} -->
<g id="edge2" class="edge">
<title>{8, 9, 7}{9, 6, 7}&#45;&gt;{8, 9, 7}{9, 6, 7}</title>
<path fill="none" stroke="black" d="M385.57,-124.64C386.57,-135.29 389.01,-142.66 392.9,-142.66 395.2,-142.66 397,-140.06 398.29,-135.72"/>
<polygon fill="black" stroke="black" points="401.69,-136.59 399.96,-126.14 394.79,-135.38 401.69,-136.59"/>
<text text-anchor="middle" x="392.9" y="-145.86" font-family="Times,serif" font-size="14.00">a</text>
</g>
<!-- {8, 9, 7}{9, 6, 7}&#45;&gt;{8, 9, 7}{9, 6, 7} -->
<g id="edge4" class="edge">
<title>{8, 9, 7}{9, 6, 7}&#45;&gt;{8, 9, 7}{9, 6, 7}</title>
<path fill="none" stroke="black" d="M377.2,-122.83C377.04,-143.76 382.27,-160.66 392.9,-160.66 401.53,-160.66 406.6,-149.5 408.11,-134.09"/>
<polygon fill="black" stroke="black" points="411.6,-134.48 408.52,-124.34 404.6,-134.18 411.6,-134.48"/>
<text text-anchor="middle" x="392.9" y="-163.86" font-family="Times,serif" font-size="14.00">b</text>
</g>
<!-- {5} -->
<g id="node2" class="node">
<title>{5}</title>
<ellipse fill="none" stroke="black" cx="266.21" cy="-62.33" rx="21.6" ry="21.6"/>
<text text-anchor="middle" x="266.21" y="-58.06" font-family="Times,serif" font-size="12.00">{5}</text>
</g>
<!-- {5}&#45;&gt;{8, 9, 7}{9, 6, 7} -->
<g id="edge1" class="edge">
<title>{5}&#45;&gt;{8, 9, 7}{9, 6, 7}</title>
<path fill="none" stroke="black" d="M288.08,-62.33C296.87,-62.33 307.67,-62.33 318.94,-62.33"/>
<polygon fill="black" stroke="black" points="318.81,-65.83 328.81,-62.33 318.81,-58.83 318.81,-65.83"/>
<text text-anchor="middle" x="309.19" y="-65.53" font-family="Times,serif" font-size="14.00">b</text>
</g>
<!-- {0, 1, 3}{1, 2, 3} -->
<g id="node3" class="node">
<title>{0, 1, 3}{1, 2, 3}</title>
<ellipse fill="lightgrey" stroke="black" cx="58.33" cy="-62.33" rx="58.33" ry="58.33"/>
<text text-anchor="middle" x="58.33" y="-58.06" font-family="Times,serif" font-size="12.00">{0, 1, 3}{1, 2, 3}</text>
</g>
<!-- {0, 1, 3}{1, 2, 3}&#45;&gt;{0, 1, 3}{1, 2, 3} -->
<g id="edge5" class="edge">
<title>{0, 1, 3}{1, 2, 3}&#45;&gt;{0, 1, 3}{1, 2, 3}</title>
<path fill="none" stroke="black" d="M44.07,-119.26C45.68,-130.59 50.43,-138.66 58.33,-138.66 63.39,-138.66 67.16,-135.35 69.64,-129.99"/>
<polygon fill="black" stroke="black" points="72.92,-131.29 72.19,-120.72 66.17,-129.43 72.92,-131.29"/>
<text text-anchor="middle" x="58.33" y="-141.86" font-family="Times,serif" font-size="14.00">b</text>
</g>
<!-- {4} -->
<g id="node4" class="node">
<title>{4}</title>
<ellipse fill="none" stroke="black" cx="180.26" cy="-62.33" rx="21.6" ry="21.6"/>
<text text-anchor="middle" x="180.26" y="-58.06" font-family="Times,serif" font-size="12.00">{4}</text>
</g>
<!-- {0, 1, 3}{1, 2, 3}&#45;&gt;{4} -->
<g id="edge3" class="edge">
<title>{0, 1, 3}{1, 2, 3}&#45;&gt;{4}</title>
<path fill="none" stroke="black" d="M116.84,-62.33C127.12,-62.33 137.5,-62.33 146.77,-62.33"/>
<polygon fill="black" stroke="black" points="146.69,-65.83 156.69,-62.33 146.69,-58.83 146.69,-65.83"/>
<text text-anchor="middle" x="137.66" y="-65.53" font-family="Times,serif" font-size="14.00">a</text>
</g>
<!-- {4}&#45;&gt;{5} -->
<g id="edge6" class="edge">
<title>{4}&#45;&gt;{5}</title>
<path fill="none" stroke="black" d="M202.02,-62.33C211.33,-62.33 222.53,-62.33 232.91,-62.33"/>
<polygon fill="black" stroke="black" points="232.6,-65.83 242.6,-62.33 232.6,-58.83 232.6,-65.83"/>
<text text-anchor="middle" x="223.24" y="-65.53" font-family="Times,serif" font-size="14.00">b</text>
</g>
</g>
</svg>
