<?xml version="1.0" encoding="UTF-8" standalone="no"?>
<!DOCTYPE svg PUBLIC "-//W3C//DTD SVG 1.1//EN"
 "http://www.w3.org/Graphics/SVG/1.1/DTD/svg11.dtd">
<!-- Generated by graphviz version 9.0.0 (20230911.1827)
 -->
<!-- Title: G Pages: 1 -->
<svg width="321pt" height="132pt"
 viewBox="0.00 0.00 320.61 131.67" xmlns="http://www.w3.org/2000/svg" xmlns:xlink="http://www.w3.org/1999/xlink">
<g id="graph0" class="graph" transform="scale(1 1) rotate(0) translate(4 127.67)">
<title>G</title>
<polygon fill="white" stroke="none" points="-4,4 -4,-127.67 316.61,-127.67 316.61,4 -4,4"/>
<!-- {4} -->
<g id="node1" class="node">
<title>{4}</title>
<ellipse fill="none" stroke="black" cx="107.64" cy="-27.33" rx="21.6" ry="21.6"/>
<text text-anchor="middle" x="107.64" y="-23.06" font-family="Times,serif" font-size="12.00">{4}</text>
</g>
<!-- {5} -->
<g id="node3" class="node">
<title>{5}</title>
<ellipse fill="none" stroke="black" cx="193.59" cy="-27.33" rx="21.6" ry="21.6"/>
<text text-anchor="middle" x="193.59" y="-23.06" font-family="Times,serif" font-size="12.00">{5}</text>
</g>
<!-- {4}&#45;&gt;{5} -->
<g id="edge4" class="edge">
<title>{4}&#45;&gt;{5}</title>
<path fill="none" stroke="black" d="M129.39,-27.33C138.71,-27.33 149.91,-27.33 160.28,-27.33"/>
<polygon fill="black" stroke="black" points="159.98,-30.83 169.98,-27.33 159.98,-23.83 159.98,-30.83"/>
<text text-anchor="middle" x="150.62" y="-30.53" font-family="Times,serif" font-size="14.00">b</text>
</g>
<!-- Final -->
<g id="node2" class="node">
<title>Final</title>
<ellipse fill="none" stroke="black" cx="285.27" cy="-27.33" rx="23.33" ry="23.33"/>
<ellipse fill="none" stroke="black" cx="285.27" cy="-27.33" rx="27.33" ry="27.33"/>
<text text-anchor="middle" x="285.27" y="-23.06" font-family="Times,serif" font-size="12.00">Final</text>
</g>
<!-- Final&#45;&gt;Final -->
<g id="edge1" class="edge">
<title>Final&#45;&gt;Final</title>
<path fill="none" stroke="black" d="M280.71,-54.78C280.61,-64.63 282.13,-72.67 285.27,-72.67 287.04,-72.67 288.29,-70.12 289.03,-66.14"/>
<polygon fill="black" stroke="black" points="292.52,-66.51 289.73,-56.28 285.54,-66.01 292.52,-66.51"/>
<text text-anchor="middle" x="285.27" y="-75.87" font-family="Times,serif" font-size="14.00">a</text>
</g>
<!-- Final&#45;&gt;Final -->
<g id="edge3" class="edge">
<title>Final&#45;&gt;Final</title>
<path fill="none" stroke="black" d="M277.08,-53.68C274.5,-72.27 277.23,-90.67 285.27,-90.67 291.68,-90.67 294.72,-78.98 294.38,-64.83"/>
<polygon fill="black" stroke="black" points="297.9,-64.87 293.59,-55.19 290.92,-65.45 297.9,-64.87"/>
<text text-anchor="middle" x="285.27" y="-93.87" font-family="Times,serif" font-size="14.00">b</text>
</g>
<!-- {5}&#45;&gt;Final -->
<g id="edge5" class="edge">
<title>{5}&#45;&gt;Final</title>
<path fill="none" stroke="black" d="M215.39,-27.33C224.49,-27.33 235.46,-27.33 245.95,-27.33"/>
<polygon fill="black" stroke="black" points="245.94,-30.83 255.94,-27.33 245.94,-23.83 245.94,-30.83"/>
<text text-anchor="middle" x="236.57" y="-30.53" font-family="Times,serif" font-size="14.00">b</text>
</g>
<!-- Start -->
<g id="node4" class="node">
<title>Start</title>
<ellipse fill="lightgrey" stroke="black" cx="22.02" cy="-27.33" rx="22.02" ry="22.02"/>
<text text-anchor="middle" x="22.02" y="-23.06" font-family="Times,serif" font-size="12.00">Start</text>
</g>
<!-- Start&#45;&gt;{4} -->
<g id="edge6" class="edge">
<title>Start&#45;&gt;{4}</title>
<path fill="none" stroke="black" d="M44.12,-27.33C53.23,-27.33 64.1,-27.33 74.2,-27.33"/>
<polygon fill="black" stroke="black" points="74.03,-30.83 84.03,-27.33 74.03,-23.83 74.03,-30.83"/>
<text text-anchor="middle" x="65.04" y="-30.53" font-family="Times,serif" font-size="14.00">a</text>
</g>
<!-- Start&#45;&gt;Start -->
<g id="edge2" class="edge">
<title>Start&#45;&gt;Start</title>
<path fill="none" stroke="black" d="M14.15,-48.33C13.18,-58.44 15.8,-67.35 22.02,-67.35 25.71,-67.35 28.14,-64.21 29.29,-59.54"/>
<polygon fill="black" stroke="black" points="32.77,-60.02 29.81,-49.85 25.78,-59.65 32.77,-60.02"/>
<text text-anchor="middle" x="22.02" y="-70.55" font-family="Times,serif" font-size="14.00">b</text>
</g>
</g>
</svg>
