<?xml version="1.0" encoding="UTF-8" standalone="no"?>
<!DOCTYPE svg PUBLIC "-//W3C//DTD SVG 1.1//EN"
 "http://www.w3.org/Graphics/SVG/1.1/DTD/svg11.dtd">
<!-- Generated by graphviz version 9.0.0 (20230911.1827)
 -->
<!-- Title: G Pages: 1 -->
<svg width="581pt" height="130pt"
 viewBox="0.00 0.00 581.49 129.70" xmlns="http://www.w3.org/2000/svg" xmlns:xlink="http://www.w3.org/1999/xlink">
<g id="graph0" class="graph" transform="scale(1 1) rotate(0) translate(4 125.7)">
<title>G</title>
<polygon fill="white" stroke="none" points="-4,4 -4,-125.7 577.49,-125.7 577.49,4 -4,4"/>
<!-- Start -->
<g id="node1" class="node">
<title>Start</title>
<ellipse fill="lightgrey" stroke="black" cx="22.02" cy="-25.6" rx="22.02" ry="22.02"/>
<text text-anchor="middle" x="22.02" y="-21.32" font-family="Times,serif" font-size="12.00">Start</text>
</g>
<!-- 1 -->
<g id="node2" class="node">
<title>1</title>
<ellipse fill="none" stroke="black" cx="107.64" cy="-65.6" rx="21.6" ry="21.6"/>
<text text-anchor="middle" x="107.64" y="-61.32" font-family="Times,serif" font-size="12.00">1</text>
</g>
<!-- Start&#45;&gt;1 -->
<g id="edge1" class="edge">
<title>Start&#45;&gt;1</title>
<path fill="none" stroke="black" d="M42.41,-34.88C52.83,-39.86 65.88,-46.1 77.5,-51.66"/>
<polygon fill="black" stroke="black" points="75.74,-54.7 86.27,-55.86 78.76,-48.39 75.74,-54.7"/>
<text text-anchor="middle" x="65.04" y="-49.8" font-family="Times,serif" font-size="14.00">a</text>
</g>
<!-- 2 -->
<g id="node3" class="node">
<title>2</title>
<ellipse fill="none" stroke="black" cx="193.59" cy="-25.6" rx="21.6" ry="21.6"/>
<text text-anchor="middle" x="193.59" y="-21.32" font-family="Times,serif" font-size="12.00">2</text>
</g>
<!-- Start&#45;&gt;2 -->
<g id="edge2" class="edge">
<title>Start&#45;&gt;2</title>
<path fill="none" stroke="black" d="M44.26,-22.44C56.45,-20.78 72.07,-18.93 86.04,-18.1 105.21,-16.96 110.07,-16.97 129.24,-18.1 139.49,-18.7 150.63,-19.86 160.66,-21.08"/>
<polygon fill="black" stroke="black" points="159.95,-24.51 170.32,-22.32 160.85,-17.57 159.95,-24.51"/>
<text text-anchor="middle" x="107.64" y="-20.8" font-family="Times,serif" font-size="14.00">b</text>
</g>
<!-- 1&#45;&gt;1 -->
<g id="edge3" class="edge">
<title>1&#45;&gt;1</title>
<path fill="none" stroke="black" d="M99.89,-85.97C98.82,-96.14 101.4,-105.2 107.64,-105.2 111.35,-105.2 113.76,-102 114.89,-97.28"/>
<polygon fill="black" stroke="black" points="118.38,-97.63 115.32,-87.49 111.38,-97.32 118.38,-97.63"/>
<text text-anchor="middle" x="107.64" y="-108.4" font-family="Times,serif" font-size="14.00">a</text>
</g>
<!-- 1&#45;&gt;2 -->
<g id="edge4" class="edge">
<title>1&#45;&gt;2</title>
<path fill="none" stroke="black" d="M127.69,-56.52C138.21,-51.51 151.5,-45.18 163.31,-39.55"/>
<polygon fill="black" stroke="black" points="164.73,-42.75 172.25,-35.29 161.72,-36.43 164.73,-42.75"/>
<text text-anchor="middle" x="150.62" y="-49.8" font-family="Times,serif" font-size="14.00">b</text>
</g>
<!-- 3 -->
<g id="node4" class="node">
<title>3</title>
<ellipse fill="none" stroke="black" cx="279.54" cy="-25.6" rx="21.6" ry="21.6"/>
<text text-anchor="middle" x="279.54" y="-21.32" font-family="Times,serif" font-size="12.00">3</text>
</g>
<!-- 2&#45;&gt;3 -->
<g id="edge5" class="edge">
<title>2&#45;&gt;3</title>
<path fill="none" stroke="black" d="M215.34,-25.6C224.66,-25.6 235.86,-25.6 246.23,-25.6"/>
<polygon fill="black" stroke="black" points="245.93,-29.1 255.93,-25.6 245.93,-22.1 245.93,-29.1"/>
<text text-anchor="middle" x="236.57" y="-28.8" font-family="Times,serif" font-size="14.00">b</text>
</g>
<!-- 4 -->
<g id="node5" class="node">
<title>4</title>
<ellipse fill="none" stroke="black" cx="364.74" cy="-25.6" rx="21.6" ry="21.6"/>
<text text-anchor="middle" x="364.74" y="-21.32" font-family="Times,serif" font-size="12.00">4</text>
</g>
<!-- 3&#45;&gt;4 -->
<g id="edge6" class="edge">
<title>3&#45;&gt;4</title>
<path fill="none" stroke="black" d="M301.54,-25.6C310.6,-25.6 321.41,-25.6 331.46,-25.6"/>
<polygon fill="black" stroke="black" points="331.24,-29.1 341.24,-25.6 331.24,-22.1 331.24,-29.1"/>
<text text-anchor="middle" x="322.14" y="-28.8" font-family="Times,serif" font-size="14.00">a</text>
</g>
<!-- 5 -->
<g id="node6" class="node">
<title>5</title>
<ellipse fill="none" stroke="black" cx="453.94" cy="-25.6" rx="21.6" ry="21.6"/>
<ellipse fill="none" stroke="black" cx="453.94" cy="-25.6" rx="25.6" ry="25.6"/>
<text text-anchor="middle" x="453.94" y="-21.32" font-family="Times,serif" font-size="12.00">5</text>
</g>
<!-- 4&#45;&gt;5 -->
<g id="edge7" class="edge">
<title>4&#45;&gt;5</title>
<path fill="none" stroke="black" d="M386.41,-25.6C395.48,-25.6 406.41,-25.6 416.76,-25.6"/>
<polygon fill="black" stroke="black" points="416.56,-29.1 426.56,-25.6 416.56,-22.1 416.56,-29.1"/>
<text text-anchor="middle" x="407.34" y="-28.8" font-family="Times,serif" font-size="14.00">a</text>
</g>
<!-- 6 -->
<g id="node7" class="node">
<title>6</title>
<ellipse fill="none" stroke="black" cx="547.89" cy="-25.6" rx="21.6" ry="21.6"/>
<ellipse fill="none" stroke="black" cx="547.89" cy="-25.6" rx="25.6" ry="25.6"/>
<text text-anchor="middle" x="547.89" y="-21.32" font-family="Times,serif" font-size="12.00">6</text>
</g>
<!-- 5&#45;&gt;6 -->
<g id="edge8" class="edge">
<title>5&#45;&gt;6</title>
<path fill="none" stroke="black" d="M479.58,-25.6C489.09,-25.6 500.16,-25.6 510.55,-25.6"/>
<polygon fill="black" stroke="black" points="510.35,-29.1 520.35,-25.6 510.35,-22.1 510.35,-29.1"/>
<text text-anchor="middle" x="500.92" y="-28.8" font-family="Times,serif" font-size="14.00">b</text>
</g>
<!-- 6&#45;&gt;6 -->
<g id="edge9" class="edge">
<title>6&#45;&gt;6</title>
<path fill="none" stroke="black" d="M539.19,-49.81C538.48,-60.26 541.38,-69.2 547.89,-69.2 551.86,-69.2 554.49,-65.88 555.77,-60.92"/>
<polygon fill="black" stroke="black" points="559.24,-61.55 556.48,-51.32 552.26,-61.04 559.24,-61.55"/>
<text text-anchor="middle" x="547.89" y="-72.4" font-family="Times,serif" font-size="14.00">b</text>
</g>
</g>
</svg>
