<?xml version="1.0" encoding="UTF-8" standalone="no"?>
<!DOCTYPE svg PUBLIC "-//W3C//DTD SVG 1.1//EN"
 "http://www.w3.org/Graphics/SVG/1.1/DTD/svg11.dtd">
<!-- Generated by graphviz version 9.0.0 (20230911.1827)
 -->
<!-- Title: G Pages: 1 -->
<svg width="750pt" height="961pt"
 viewBox="0.00 0.00 749.61 960.50" xmlns="http://www.w3.org/2000/svg" xmlns:xlink="http://www.w3.org/1999/xlink">
<g id="graph0" class="graph" transform="scale(1 1) rotate(0) translate(4 956.5)">
<title>G</title>
<polygon fill="white" stroke="none" points="-4,4 -4,-956.5 745.61,-956.5 745.61,4 -4,4"/>
<!-- {2} -->
<g id="node1" class="node">
<title>{2}</title>
<ellipse fill="none" stroke="black" cx="194.34" cy="-178" rx="21.6" ry="21.6"/>
<text text-anchor="middle" x="194.34" y="-173.72" font-family="Times,serif" font-size="12.00">{2}</text>
</g>
<!-- {3} -->
<g id="node5" class="node">
<title>{3}</title>
<ellipse fill="none" stroke="black" cx="279.54" cy="-314" rx="21.6" ry="21.6"/>
<text text-anchor="middle" x="279.54" y="-309.73" font-family="Times,serif" font-size="12.00">{3}</text>
</g>
<!-- {2}&#45;&gt;{3} -->
<g id="edge17" class="edge">
<title>{2}&#45;&gt;{3}</title>
<path fill="none" stroke="black" d="M205.74,-196.63C213.37,-210.16 224.08,-228.85 233.94,-245 242.45,-258.93 252.26,-274.19 260.51,-286.81"/>
<polygon fill="black" stroke="black" points="257.49,-288.59 265.91,-295.02 263.34,-284.74 257.49,-288.59"/>
<text text-anchor="middle" x="236.94" y="-258.2" font-family="Times,serif" font-size="14.00">a</text>
</g>
<!-- E -->
<g id="node6" class="node">
<title>E</title>
<ellipse fill="none" stroke="black" cx="720.01" cy="-512" rx="21.6" ry="21.6"/>
<text text-anchor="middle" x="720.01" y="-507.73" font-family="Times,serif" font-size="12.00">E</text>
</g>
<!-- {2}&#45;&gt;E -->
<g id="edge6" class="edge">
<title>{2}&#45;&gt;E</title>
<path fill="none" stroke="black" d="M209.25,-193.9C224.53,-209.51 250.62,-231 278.54,-231 278.54,-231 278.54,-231 629.32,-231 680.86,-231 706.8,-404.74 715.53,-478.99"/>
<polygon fill="black" stroke="black" points="712.05,-479.37 716.66,-488.91 719.01,-478.58 712.05,-479.37"/>
<text text-anchor="middle" x="450.69" y="-234.2" font-family="Times,serif" font-size="14.00">d</text>
</g>
<!-- {2}&#45;&gt;E -->
<g id="edge12" class="edge">
<title>{2}&#45;&gt;E</title>
<path fill="none" stroke="black" d="M216.2,-178C233.03,-178 257.31,-178 278.54,-178 278.54,-178 278.54,-178 629.32,-178 691.13,-178 711.53,-394.01 717.15,-478.6"/>
<polygon fill="black" stroke="black" points="713.65,-478.82 717.78,-488.57 720.64,-478.37 713.65,-478.82"/>
<text text-anchor="middle" x="450.69" y="-181.2" font-family="Times,serif" font-size="14.00">b</text>
</g>
<!-- {2}&#45;&gt;E -->
<g id="edge16" class="edge">
<title>{2}&#45;&gt;E</title>
<path fill="none" stroke="black" d="M209.25,-162.1C224.53,-146.49 250.62,-125 278.54,-125 278.54,-125 278.54,-125 629.32,-125 701.67,-125 715.67,-384.93 718.37,-478.74"/>
<polygon fill="black" stroke="black" points="714.86,-478.67 718.62,-488.57 721.86,-478.48 714.86,-478.67"/>
<text text-anchor="middle" x="450.69" y="-128.2" font-family="Times,serif" font-size="14.00">g</text>
</g>
<!-- {4} -->
<g id="node2" class="node">
<title>{4}</title>
<ellipse fill="none" stroke="black" cx="364.74" cy="-447" rx="21.6" ry="21.6"/>
<text text-anchor="middle" x="364.74" y="-442.73" font-family="Times,serif" font-size="12.00">{4}</text>
</g>
<!-- {5} -->
<g id="node4" class="node">
<title>{5}</title>
<ellipse fill="none" stroke="black" cx="450.69" cy="-583" rx="21.6" ry="21.6"/>
<text text-anchor="middle" x="450.69" y="-578.73" font-family="Times,serif" font-size="12.00">{5}</text>
</g>
<!-- {4}&#45;&gt;{5} -->
<g id="edge25" class="edge">
<title>{4}&#45;&gt;{5}</title>
<path fill="none" stroke="black" d="M376.1,-465.66C383.71,-479.2 394.41,-497.88 404.34,-514 412.94,-527.96 422.91,-543.23 431.31,-555.84"/>
<polygon fill="black" stroke="black" points="428.34,-557.69 436.81,-564.06 434.16,-553.8 428.34,-557.69"/>
<text text-anchor="middle" x="407.72" y="-527.2" font-family="Times,serif" font-size="14.00">a</text>
</g>
<!-- {4}&#45;&gt;E -->
<g id="edge8" class="edge">
<title>{4}&#45;&gt;E</title>
<path fill="none" stroke="black" d="M379.81,-462.9C395.24,-478.51 421.6,-500 449.69,-500 449.69,-500 449.69,-500 629.32,-500 648.72,-500 670.28,-502.79 687.39,-505.68"/>
<polygon fill="black" stroke="black" points="686.5,-509.08 696.96,-507.4 687.74,-502.19 686.5,-509.08"/>
<text text-anchor="middle" x="536.64" y="-503.2" font-family="Times,serif" font-size="14.00">d</text>
</g>
<!-- {4}&#45;&gt;E -->
<g id="edge10" class="edge">
<title>{4}&#45;&gt;E</title>
<path fill="none" stroke="black" d="M386.79,-447C403.77,-447 428.27,-447 449.69,-447 449.69,-447 449.69,-447 629.32,-447 657.42,-447 682.65,-468.17 699.14,-486.35"/>
<polygon fill="black" stroke="black" points="696.35,-488.47 705.52,-493.77 701.66,-483.91 696.35,-488.47"/>
<text text-anchor="middle" x="536.64" y="-450.2" font-family="Times,serif" font-size="14.00">b</text>
</g>
<!-- {4}&#45;&gt;E -->
<g id="edge19" class="edge">
<title>{4}&#45;&gt;E</title>
<path fill="none" stroke="black" d="M379.81,-431.1C395.24,-415.49 421.6,-394 449.69,-394 449.69,-394 449.69,-394 629.32,-394 672.74,-394 697.89,-445.27 709.98,-480.22"/>
<polygon fill="black" stroke="black" points="706.57,-481.04 712.99,-489.46 713.23,-478.87 706.57,-481.04"/>
<text text-anchor="middle" x="536.64" y="-397.2" font-family="Times,serif" font-size="14.00">g</text>
</g>
<!-- {6} -->
<g id="node3" class="node">
<title>{6}</title>
<ellipse fill="none" stroke="black" cx="536.64" cy="-700" rx="21.6" ry="21.6"/>
<text text-anchor="middle" x="536.64" y="-695.73" font-family="Times,serif" font-size="12.00">{6}</text>
</g>
<!-- {6}&#45;&gt;E -->
<g id="edge11" class="edge">
<title>{6}&#45;&gt;E</title>
<path fill="none" stroke="black" d="M548.86,-718.02C555.69,-727.61 565.21,-738.87 576.24,-746 616.22,-771.86 644.34,-802.09 680.41,-771 713.81,-742.21 718.75,-608.32 719.19,-545.15"/>
<polygon fill="black" stroke="black" points="722.69,-545.39 719.22,-535.38 715.69,-545.37 722.69,-545.39"/>
<text text-anchor="middle" x="628.32" y="-787.2" font-family="Times,serif" font-size="14.00">b</text>
</g>
<!-- {6}&#45;&gt;E -->
<g id="edge27" class="edge">
<title>{6}&#45;&gt;E</title>
<path fill="none" stroke="black" d="M557.27,-707.93C591.89,-721.32 661.92,-745.5 680.41,-730 708.05,-706.82 715.91,-600.41 718.13,-545.3"/>
<polygon fill="black" stroke="black" points="721.62,-545.68 718.48,-535.56 714.63,-545.43 721.62,-545.68"/>
<text text-anchor="middle" x="628.32" y="-737.2" font-family="Times,serif" font-size="14.00">a</text>
</g>
<!-- Final -->
<g id="node8" class="node">
<title>Final</title>
<ellipse fill="none" stroke="black" cx="628.32" cy="-669" rx="23.33" ry="23.33"/>
<ellipse fill="none" stroke="black" cx="628.32" cy="-669" rx="27.33" ry="27.33"/>
<text text-anchor="middle" x="628.32" y="-664.73" font-family="Times,serif" font-size="12.00">Final</text>
</g>
<!-- {6}&#45;&gt;Final -->
<g id="edge18" class="edge">
<title>{6}&#45;&gt;Final</title>
<path fill="none" stroke="black" d="M557.54,-693.12C567.48,-689.69 579.8,-685.43 591.32,-681.44"/>
<polygon fill="black" stroke="black" points="592.27,-684.82 600.58,-678.24 589.98,-678.2 592.27,-684.82"/>
<text text-anchor="middle" x="579.62" y="-690.2" font-family="Times,serif" font-size="14.00">d</text>
</g>
<!-- {6}&#45;&gt;Final -->
<g id="edge30" class="edge">
<title>{6}&#45;&gt;Final</title>
<path fill="none" stroke="black" d="M550.82,-683.2C557.55,-675.99 566.4,-668.34 576.24,-664.5 580.67,-662.77 585.48,-661.96 590.31,-661.76"/>
<polygon fill="black" stroke="black" points="589.82,-665.24 599.96,-662.19 590.13,-658.25 589.82,-665.24"/>
<text text-anchor="middle" x="579.62" y="-668.2" font-family="Times,serif" font-size="14.00">g</text>
</g>
<!-- {5}&#45;&gt;{6} -->
<g id="edge15" class="edge">
<title>{5}&#45;&gt;{6}</title>
<path fill="none" stroke="black" d="M464.08,-600.26C477.9,-619.53 500.44,-650.95 516.53,-673.37"/>
<polygon fill="black" stroke="black" points="513.65,-675.35 522.32,-681.44 519.33,-671.27 513.65,-675.35"/>
<text text-anchor="middle" x="493.67" y="-649.2" font-family="Times,serif" font-size="14.00">a</text>
</g>
<!-- {5}&#45;&gt;E -->
<g id="edge2" class="edge">
<title>{5}&#45;&gt;E</title>
<path fill="none" stroke="black" d="M470.97,-591.48C477.03,-593.74 483.83,-595.86 490.29,-597 562.74,-609.73 590.41,-623.98 655.66,-590 676.35,-579.22 692.71,-558.41 703.62,-541"/>
<polygon fill="black" stroke="black" points="706.55,-542.93 708.63,-532.54 700.52,-539.36 706.55,-542.93"/>
<text text-anchor="middle" x="579.62" y="-615.2" font-family="Times,serif" font-size="14.00">g</text>
</g>
<!-- {5}&#45;&gt;E -->
<g id="edge20" class="edge">
<title>{5}&#45;&gt;E</title>
<path fill="none" stroke="black" d="M472.66,-582.62C510.43,-581.34 591.89,-575.78 655.66,-552 668.81,-547.09 682.14,-539.21 693.15,-531.74"/>
<polygon fill="black" stroke="black" points="695.17,-534.59 701.31,-525.96 691.12,-528.88 695.17,-534.59"/>
<text text-anchor="middle" x="579.62" y="-576.2" font-family="Times,serif" font-size="14.00">d</text>
</g>
<!-- {5}&#45;&gt;E -->
<g id="edge33" class="edge">
<title>{5}&#45;&gt;E</title>
<path fill="none" stroke="black" d="M471.78,-577.66C518.03,-565.38 632.3,-535.03 687.78,-520.29"/>
<polygon fill="black" stroke="black" points="688.45,-523.74 697.22,-517.79 686.65,-516.97 688.45,-523.74"/>
<text text-anchor="middle" x="579.62" y="-553.2" font-family="Times,serif" font-size="14.00">b</text>
</g>
<!-- {3}&#45;&gt;{4} -->
<g id="edge21" class="edge">
<title>{3}&#45;&gt;{4}</title>
<path fill="none" stroke="black" d="M291.93,-332.21C306,-354.7 330.06,-393.16 346.42,-419.31"/>
<polygon fill="black" stroke="black" points="343.41,-421.1 351.68,-427.72 349.35,-417.39 343.41,-421.1"/>
<text text-anchor="middle" x="322.14" y="-388.2" font-family="Times,serif" font-size="14.00">a</text>
</g>
<!-- {3}&#45;&gt;E -->
<g id="edge28" class="edge">
<title>{3}&#45;&gt;E</title>
<path fill="none" stroke="black" d="M299.95,-321.87C306.02,-324.11 312.79,-326.37 319.14,-328 465.75,-365.53 525.88,-302.15 655.66,-380 690.7,-401.02 706.71,-447.69 713.78,-479.51"/>
<polygon fill="black" stroke="black" points="710.28,-479.89 715.69,-489 717.14,-478.51 710.28,-479.89"/>
<text text-anchor="middle" x="493.67" y="-342.2" font-family="Times,serif" font-size="14.00">d</text>
</g>
<!-- {3}&#45;&gt;E -->
<g id="edge29" class="edge">
<title>{3}&#45;&gt;E</title>
<path fill="none" stroke="black" d="M300.8,-309.54C361.25,-297.46 543.08,-270.11 655.66,-350 697.39,-379.62 711.63,-441.02 716.49,-479.14"/>
<polygon fill="black" stroke="black" points="712.97,-479.1 717.55,-488.66 719.92,-478.33 712.97,-479.1"/>
<text text-anchor="middle" x="493.67" y="-301.2" font-family="Times,serif" font-size="14.00">b</text>
</g>
<!-- {3}&#45;&gt;E -->
<g id="edge36" class="edge">
<title>{3}&#45;&gt;E</title>
<path fill="none" stroke="black" d="M300.36,-306.75C361.1,-285.91 547.14,-232.63 655.66,-318 704.89,-356.73 716.33,-434.49 718.7,-478.9"/>
<polygon fill="black" stroke="black" points="715.2,-478.85 719.09,-488.7 722.19,-478.57 715.2,-478.85"/>
<text text-anchor="middle" x="493.67" y="-275.2" font-family="Times,serif" font-size="14.00">g</text>
</g>
<!-- E&#45;&gt;E -->
<g id="edge3" class="edge">
<title>E&#45;&gt;E</title>
<path fill="none" stroke="black" d="M718.02,-533.99C717.85,-543.48 718.52,-551.6 720.01,-551.6 720.82,-551.6 721.39,-549.17 721.71,-545.42"/>
<polygon fill="black" stroke="black" points="725.21,-545.59 721.96,-535.5 718.21,-545.41 725.21,-545.59"/>
<text text-anchor="middle" x="720.01" y="-554.8" font-family="Times,serif" font-size="14.00">g</text>
</g>
<!-- E&#45;&gt;E -->
<g id="edge7" class="edge">
<title>E&#45;&gt;E</title>
<path fill="none" stroke="black" d="M716.57,-533.57C715.15,-551.24 716.29,-569.6 720.01,-569.6 722.91,-569.6 724.24,-558.4 724.01,-545.07"/>
<polygon fill="black" stroke="black" points="727.51,-544.9 723.52,-535.08 720.51,-545.24 727.51,-544.9"/>
<text text-anchor="middle" x="720.01" y="-572.8" font-family="Times,serif" font-size="14.00">a</text>
</g>
<!-- E&#45;&gt;E -->
<g id="edge22" class="edge">
<title>E&#45;&gt;E</title>
<path fill="none" stroke="black" d="M715.62,-533.28C712.41,-558.36 713.87,-587.6 720.01,-587.6 725.23,-587.6 727.07,-566.39 725.52,-544.62"/>
<polygon fill="black" stroke="black" points="729.01,-544.4 724.54,-534.79 722.05,-545.09 729.01,-544.4"/>
<text text-anchor="middle" x="720.01" y="-590.8" font-family="Times,serif" font-size="14.00">d</text>
</g>
<!-- E&#45;&gt;E -->
<g id="edge32" class="edge">
<title>E&#45;&gt;E</title>
<path fill="none" stroke="black" d="M714.94,-533.15C709.67,-565.19 711.36,-605.6 720.01,-605.6 727.67,-605.6 729.87,-573.83 726.59,-544.29"/>
<polygon fill="black" stroke="black" points="730.1,-544.09 725.28,-534.65 723.16,-545.04 730.1,-544.09"/>
<text text-anchor="middle" x="720.01" y="-608.8" font-family="Times,serif" font-size="14.00">b</text>
</g>
<!-- {1} -->
<g id="node7" class="node">
<title>{1}</title>
<ellipse fill="none" stroke="black" cx="108.39" cy="-80" rx="21.6" ry="21.6"/>
<text text-anchor="middle" x="108.39" y="-75.72" font-family="Times,serif" font-size="12.00">{1}</text>
</g>
<!-- {1}&#45;&gt;{2} -->
<g id="edge14" class="edge">
<title>{1}&#45;&gt;{2}</title>
<path fill="none" stroke="black" d="M123.25,-96.18C136.62,-111.79 157.03,-135.61 172.38,-153.53"/>
<polygon fill="black" stroke="black" points="169.31,-155.33 178.47,-160.64 174.63,-150.77 169.31,-155.33"/>
<text text-anchor="middle" x="151.37" y="-135.2" font-family="Times,serif" font-size="14.00">b</text>
</g>
<!-- {1}&#45;&gt;E -->
<g id="edge5" class="edge">
<title>{1}&#45;&gt;E</title>
<path fill="none" stroke="black" d="M130.44,-80C147.42,-80 171.92,-80 193.34,-80 193.34,-80 193.34,-80 365.74,-80 422.15,-80 436.25,-79 492.67,-79 492.67,-79 492.67,-79 629.32,-79 710.84,-79 718.83,-376.98 719.18,-478.55"/>
<polygon fill="black" stroke="black" points="715.68,-478.42 719.19,-488.42 722.68,-478.42 715.68,-478.42"/>
<text text-anchor="middle" x="407.72" y="-83.2" font-family="Times,serif" font-size="14.00">d</text>
</g>
<!-- {1}&#45;&gt;E -->
<g id="edge26" class="edge">
<title>{1}&#45;&gt;E</title>
<path fill="none" stroke="black" d="M125.97,-66.68C142.16,-55.04 167.99,-40 193.34,-40 193.34,-40 193.34,-40 629.32,-40 671.88,-40 669.58,-79.84 680.41,-121 714.38,-250.13 718.97,-410.39 719.24,-478.68"/>
<polygon fill="black" stroke="black" points="715.74,-478.44 719.25,-488.44 722.74,-478.44 715.74,-478.44"/>
<text text-anchor="middle" x="407.72" y="-43.2" font-family="Times,serif" font-size="14.00">g</text>
</g>
<!-- {1}&#45;&gt;E -->
<g id="edge34" class="edge">
<title>{1}&#45;&gt;E</title>
<path fill="none" stroke="black" d="M118.93,-60.63C132.12,-36.96 158.31,0 193.34,0 193.34,0 193.34,0 629.32,0 664.15,0 679.75,-86.24 680.41,-89 714.08,-231.11 718.75,-406.5 719.14,-478.63"/>
<polygon fill="black" stroke="black" points="715.64,-478.58 719.17,-488.57 722.64,-478.56 715.64,-478.58"/>
<text text-anchor="middle" x="407.72" y="-3.2" font-family="Times,serif" font-size="14.00">a</text>
</g>
<!-- Final&#45;&gt;E -->
<g id="edge1" class="edge">
<title>Final&#45;&gt;E</title>
<path fill="none" stroke="black" d="M644.43,-691.45C654.79,-704.09 668.72,-715.59 680.41,-706 704.75,-686.03 714.02,-595.12 717.33,-545.15"/>
<polygon fill="black" stroke="black" points="720.82,-545.4 717.93,-535.2 713.83,-544.97 720.82,-545.4"/>
<text text-anchor="middle" x="677.03" y="-712.2" font-family="Times,serif" font-size="14.00">g</text>
</g>
<!-- Final&#45;&gt;E -->
<g id="edge13" class="edge">
<title>Final&#45;&gt;E</title>
<path fill="none" stroke="black" d="M655.76,-673.33C664.46,-673.33 673.63,-671.61 680.41,-666 698.81,-650.75 709.99,-585.52 715.29,-545"/>
<polygon fill="black" stroke="black" points="718.73,-545.65 716.5,-535.3 711.79,-544.79 718.73,-545.65"/>
<text text-anchor="middle" x="677.03" y="-673.2" font-family="Times,serif" font-size="14.00">a</text>
</g>
<!-- Final&#45;&gt;E -->
<g id="edge23" class="edge">
<title>Final&#45;&gt;E</title>
<path fill="none" stroke="black" d="M651.9,-654.26C661.82,-646.81 672.89,-637.01 680.41,-626 697.31,-601.23 707.39,-568.4 712.99,-544.34"/>
<polygon fill="black" stroke="black" points="716.36,-545.3 715.06,-534.78 709.52,-543.81 716.36,-545.3"/>
<text text-anchor="middle" x="677.03" y="-638.2" font-family="Times,serif" font-size="14.00">d</text>
</g>
<!-- Final&#45;&gt;E -->
<g id="edge35" class="edge">
<title>Final&#45;&gt;E</title>
<path fill="none" stroke="black" d="M643.97,-646.54C647.82,-640.55 651.93,-634.05 655.66,-628 667.01,-609.55 669.89,-604.94 680.41,-586 688.53,-571.36 697.18,-554.86 704.24,-541.16"/>
<polygon fill="black" stroke="black" points="707.15,-543.15 708.59,-532.66 700.92,-539.96 707.15,-543.15"/>
<text text-anchor="middle" x="677.03" y="-601.2" font-family="Times,serif" font-size="14.00">b</text>
</g>
<!-- Start -->
<g id="node9" class="node">
<title>Start</title>
<ellipse fill="lightgrey" stroke="black" cx="22.02" cy="-856" rx="22.02" ry="22.02"/>
<text text-anchor="middle" x="22.02" y="-851.73" font-family="Times,serif" font-size="12.00">Start</text>
</g>
<!-- Start&#45;&gt;E -->
<g id="edge4" class="edge">
<title>Start&#45;&gt;E</title>
<path fill="none" stroke="black" d="M32.63,-875.37C45.91,-899.04 72.27,-936 107.39,-936 107.39,-936 107.39,-936 629.32,-936 657.89,-936 666.48,-921.94 680.41,-897 713.89,-837.04 718.51,-627.25 719.01,-545.22"/>
<polygon fill="black" stroke="black" points="722.51,-545.39 719.06,-535.38 715.51,-545.36 722.51,-545.39"/>
<text text-anchor="middle" x="364.74" y="-939.2" font-family="Times,serif" font-size="14.00">g</text>
</g>
<!-- Start&#45;&gt;E -->
<g id="edge9" class="edge">
<title>Start&#45;&gt;E</title>
<path fill="none" stroke="black" d="M42.24,-865.9C58.99,-873.61 84.17,-883 107.39,-883 107.39,-883 107.39,-883 629.32,-883 657.89,-883 666.28,-868.83 680.41,-844 709.15,-793.48 716.54,-618.69 718.4,-545.09"/>
<polygon fill="black" stroke="black" points="721.9,-545.36 718.63,-535.29 714.9,-545.2 721.9,-545.36"/>
<text text-anchor="middle" x="364.74" y="-886.2" font-family="Times,serif" font-size="14.00">a</text>
</g>
<!-- Start&#45;&gt;E -->
<g id="edge31" class="edge">
<title>Start&#45;&gt;E</title>
<path fill="none" stroke="black" d="M42.28,-846.47C59.05,-839.05 84.25,-830 107.39,-830 107.39,-830 107.39,-830 629.32,-830 659,-830 666.04,-812.97 680.41,-787 703.04,-746.08 713.54,-609.26 717.29,-545.38"/>
<polygon fill="black" stroke="black" points="720.78,-545.68 717.85,-535.49 713.79,-545.28 720.78,-545.68"/>
<text text-anchor="middle" x="364.74" y="-833.2" font-family="Times,serif" font-size="14.00">d</text>
</g>
<!-- Start&#45;&gt;{1} -->
<g id="edge24" class="edge">
<title>Start&#45;&gt;{1}</title>
<path fill="none" stroke="black" d="M25.41,-834.03C37.24,-725.2 89.56,-243.97 103.8,-113"/>
<polygon fill="black" stroke="black" points="107.26,-113.61 104.86,-103.29 100.3,-112.85 107.26,-113.61"/>
<text text-anchor="middle" x="65.42" y="-495.2" font-family="Times,serif" font-size="14.00">b</text>
</g>
</g>
</svg>
