<?xml version="1.0" encoding="UTF-8" standalone="no"?>
<!DOCTYPE svg PUBLIC "-//W3C//DTD SVG 1.1//EN"
 "http://www.w3.org/Graphics/SVG/1.1/DTD/svg11.dtd">
<!-- Generated by graphviz version 9.0.0 (20230911.1827)
 -->
<!-- Title: G Pages: 1 -->
<svg width="570pt" height="182pt"
 viewBox="0.00 0.00 570.44 182.43" xmlns="http://www.w3.org/2000/svg" xmlns:xlink="http://www.w3.org/1999/xlink">
<g id="graph0" class="graph" transform="scale(1 1) rotate(0) translate(4 178.43)">
<title>G</title>
<polygon fill="white" stroke="none" points="-4,4 -4,-178.43 566.44,-178.43 566.44,4 -4,4"/>
<!-- Start -->
<g id="node1" class="node">
<title>Start</title>
<ellipse fill="lightgrey" stroke="black" cx="22.02" cy="-67.6" rx="22.02" ry="22.02"/>
<text text-anchor="middle" x="22.02" y="-63.32" font-family="Times,serif" font-size="12.00">Start</text>
</g>
<!-- {4} -->
<g id="node2" class="node">
<title>{4}</title>
<ellipse fill="none" stroke="black" cx="218.06" cy="-67.6" rx="21.6" ry="21.6"/>
<text text-anchor="middle" x="218.06" y="-63.32" font-family="Times,serif" font-size="12.00">{4}</text>
</g>
<!-- Start&#45;&gt;{4} -->
<g id="edge1" class="edge">
<title>Start&#45;&gt;{4}</title>
<path fill="none" stroke="black" d="M43.07,-75.2C55.47,-79.49 71.82,-84.42 86.79,-86.6 116.55,-90.94 124.71,-91.01 154.46,-86.6 165.15,-85.01 176.54,-81.98 186.64,-78.79"/>
<polygon fill="black" stroke="black" points="187.57,-82.17 195.95,-75.68 185.35,-75.53 187.57,-82.17"/>
<text text-anchor="middle" x="120.62" y="-92.8" font-family="Times,serif" font-size="14.00">a</text>
</g>
<!-- {1, 2, 3} -->
<g id="node3" class="node">
<title>{1, 2, 3}</title>
<ellipse fill="none" stroke="black" cx="120.62" cy="-21.6" rx="33.83" ry="21.6"/>
<text text-anchor="middle" x="120.62" y="-17.32" font-family="Times,serif" font-size="12.00">{1, 2, 3}</text>
</g>
<!-- Start&#45;&gt;{1, 2, 3} -->
<g id="edge2" class="edge">
<title>Start&#45;&gt;{1, 2, 3}</title>
<path fill="none" stroke="black" d="M42.11,-58.51C53.67,-53 68.82,-45.79 82.66,-39.2"/>
<polygon fill="black" stroke="black" points="84.01,-42.44 91.53,-34.98 81,-36.12 84.01,-42.44"/>
<text text-anchor="middle" x="65.42" y="-52.8" font-family="Times,serif" font-size="14.00">b</text>
</g>
<!-- {5} -->
<g id="node4" class="node">
<title>{5}</title>
<ellipse fill="none" stroke="black" cx="304.01" cy="-67.6" rx="21.6" ry="21.6"/>
<text text-anchor="middle" x="304.01" y="-63.32" font-family="Times,serif" font-size="12.00">{5}</text>
</g>
<!-- {4}&#45;&gt;{5} -->
<g id="edge3" class="edge">
<title>{4}&#45;&gt;{5}</title>
<path fill="none" stroke="black" d="M239.81,-67.6C249.12,-67.6 260.33,-67.6 270.7,-67.6"/>
<polygon fill="black" stroke="black" points="270.4,-71.1 280.4,-67.6 270.4,-64.1 270.4,-71.1"/>
<text text-anchor="middle" x="261.03" y="-70.8" font-family="Times,serif" font-size="14.00">b</text>
</g>
<!-- {1, 2, 3}&#45;&gt;{4} -->
<g id="edge4" class="edge">
<title>{1, 2, 3}&#45;&gt;{4}</title>
<path fill="none" stroke="black" d="M148.21,-34.41C160.62,-40.39 175.41,-47.53 188.11,-53.65"/>
<polygon fill="black" stroke="black" points="186.28,-56.65 196.81,-57.84 189.32,-50.35 186.28,-56.65"/>
<text text-anchor="middle" x="175.46" y="-52.8" font-family="Times,serif" font-size="14.00">a</text>
</g>
<!-- {1, 2, 3}&#45;&gt;{1, 2, 3} -->
<g id="edge5" class="edge">
<title>{1, 2, 3}&#45;&gt;{1, 2, 3}</title>
<path fill="none" stroke="black" d="M110.59,-42.38C109.35,-52.38 112.7,-61.2 120.62,-61.2 125.2,-61.2 128.26,-58.25 129.77,-53.83"/>
<polygon fill="black" stroke="black" points="133.26,-54.13 130.54,-43.89 126.28,-53.59 133.26,-54.13"/>
<text text-anchor="middle" x="120.62" y="-64.4" font-family="Times,serif" font-size="14.00">b</text>
</g>
<!-- {9, 6, 7} -->
<g id="node5" class="node">
<title>{9, 6, 7}</title>
<ellipse fill="none" stroke="black" cx="406.19" cy="-67.6" rx="33.83" ry="33.83"/>
<ellipse fill="none" stroke="black" cx="406.19" cy="-67.6" rx="37.83" ry="37.83"/>
<text text-anchor="middle" x="406.19" y="-63.32" font-family="Times,serif" font-size="12.00">{9, 6, 7}</text>
</g>
<!-- {5}&#45;&gt;{9, 6, 7} -->
<g id="edge6" class="edge">
<title>{5}&#45;&gt;{9, 6, 7}</title>
<path fill="none" stroke="black" d="M325.76,-67.6C334.87,-67.6 345.96,-67.6 356.94,-67.6"/>
<polygon fill="black" stroke="black" points="356.74,-71.1 366.74,-67.6 356.74,-64.1 356.74,-71.1"/>
<text text-anchor="middle" x="346.98" y="-70.8" font-family="Times,serif" font-size="14.00">b</text>
</g>
<!-- {8, 9, 7} -->
<g id="node6" class="node">
<title>{8, 9, 7}</title>
<ellipse fill="none" stroke="black" cx="524.6" cy="-67.6" rx="33.83" ry="33.83"/>
<ellipse fill="none" stroke="black" cx="524.6" cy="-67.6" rx="37.83" ry="37.83"/>
<text text-anchor="middle" x="524.6" y="-63.32" font-family="Times,serif" font-size="12.00">{8, 9, 7}</text>
</g>
<!-- {9, 6, 7}&#45;&gt;{8, 9, 7} -->
<g id="edge7" class="edge">
<title>{9, 6, 7}&#45;&gt;{8, 9, 7}</title>
<path fill="none" stroke="black" d="M444.34,-67.6C454.11,-67.6 464.79,-67.6 475.06,-67.6"/>
<polygon fill="black" stroke="black" points="474.89,-71.1 484.89,-67.6 474.89,-64.1 474.89,-71.1"/>
<text text-anchor="middle" x="465.4" y="-70.8" font-family="Times,serif" font-size="14.00">a</text>
</g>
<!-- {9, 6, 7}&#45;&gt;{8, 9, 7} -->
<g id="edge8" class="edge">
<title>{9, 6, 7}&#45;&gt;{8, 9, 7}</title>
<path fill="none" stroke="black" d="M439.98,-50.2C449.16,-47.12 459.23,-45.38 468.77,-47.1 471.96,-47.68 475.2,-48.43 478.44,-49.3"/>
<polygon fill="black" stroke="black" points="477.29,-52.61 487.88,-52.21 479.36,-45.92 477.29,-52.61"/>
<text text-anchor="middle" x="465.4" y="-50.8" font-family="Times,serif" font-size="14.00">b</text>
</g>
<!-- {8, 9, 7}&#45;&gt;{8, 9, 7} -->
<g id="edge9" class="edge">
<title>{8, 9, 7}&#45;&gt;{8, 9, 7}</title>
<path fill="none" stroke="black" d="M519.09,-105.44C519.38,-115.66 521.22,-123.43 524.6,-123.43 526.56,-123.43 528,-120.83 528.92,-116.67"/>
<polygon fill="black" stroke="black" points="532.38,-117.26 529.95,-106.94 525.42,-116.52 532.38,-117.26"/>
<text text-anchor="middle" x="524.6" y="-126.63" font-family="Times,serif" font-size="14.00">a</text>
</g>
<!-- {8, 9, 7}&#45;&gt;{8, 9, 7} -->
<g id="edge10" class="edge">
<title>{8, 9, 7}&#45;&gt;{8, 9, 7}</title>
<path fill="none" stroke="black" d="M513.96,-104.07C512.15,-123.62 515.7,-141.43 524.6,-141.43 531.77,-141.43 535.47,-129.9 535.69,-115.21"/>
<polygon fill="black" stroke="black" points="539.21,-115.43 535.31,-105.58 532.21,-115.71 539.21,-115.43"/>
<text text-anchor="middle" x="524.6" y="-144.63" font-family="Times,serif" font-size="14.00">b</text>
</g>
</g>
</svg>
