<?xml version="1.0" encoding="UTF-8" standalone="no"?>
<!DOCTYPE svg PUBLIC "-//W3C//DTD SVG 1.1//EN"
 "http://www.w3.org/Graphics/SVG/1.1/DTD/svg11.dtd">
<!-- Generated by graphviz version 9.0.0 (20230911.1827)
 -->
<!-- Title: G Pages: 1 -->
<svg width="594pt" height="182pt"
 viewBox="0.00 0.00 594.06 182.43" xmlns="http://www.w3.org/2000/svg" xmlns:xlink="http://www.w3.org/1999/xlink">
<g id="graph0" class="graph" transform="scale(1 1) rotate(0) translate(4 178.43)">
<title>G</title>
<polygon fill="white" stroke="none" points="-4,4 -4,-178.43 590.06,-178.43 590.06,4 -4,4"/>
<!-- {0, 1, 3} -->
<g id="node1" class="node">
<title>{0, 1, 3}</title>
<ellipse fill="lightgrey" stroke="black" cx="33.83" cy="-67.6" rx="33.83" ry="33.83"/>
<text text-anchor="middle" x="33.83" y="-63.32" font-family="Times,serif" font-size="12.00">{0, 1, 3}</text>
</g>
<!-- {4} -->
<g id="node2" class="node">
<title>{4}</title>
<ellipse fill="none" stroke="black" cx="241.68" cy="-67.6" rx="21.6" ry="21.6"/>
<text text-anchor="middle" x="241.68" y="-63.32" font-family="Times,serif" font-size="12.00">{4}</text>
</g>
<!-- {0, 1, 3}&#45;&gt;{4} -->
<g id="edge1" class="edge">
<title>{0, 1, 3}&#45;&gt;{4}</title>
<path fill="none" stroke="black" d="M66.5,-77.41C79.9,-81.08 95.78,-84.79 110.42,-86.6 140.26,-90.29 148.33,-91.01 178.08,-86.6 188.77,-85.01 200.17,-81.98 210.27,-78.79"/>
<polygon fill="black" stroke="black" points="211.2,-82.17 219.57,-75.68 208.98,-75.53 211.2,-82.17"/>
<text text-anchor="middle" x="144.25" y="-92.8" font-family="Times,serif" font-size="14.00">a</text>
</g>
<!-- {1, 2, 3} -->
<g id="node3" class="node">
<title>{1, 2, 3}</title>
<ellipse fill="none" stroke="black" cx="144.25" cy="-21.6" rx="33.83" ry="21.6"/>
<text text-anchor="middle" x="144.25" y="-17.32" font-family="Times,serif" font-size="12.00">{1, 2, 3}</text>
</g>
<!-- {0, 1, 3}&#45;&gt;{1, 2, 3} -->
<g id="edge2" class="edge">
<title>{0, 1, 3}&#45;&gt;{1, 2, 3}</title>
<path fill="none" stroke="black" d="M65.32,-54.66C77.65,-49.43 92.02,-43.34 105.04,-37.81"/>
<polygon fill="black" stroke="black" points="106.35,-41.06 114.19,-33.93 103.61,-34.61 106.35,-41.06"/>
<text text-anchor="middle" x="89.04" y="-49.8" font-family="Times,serif" font-size="14.00">b</text>
</g>
<!-- {5} -->
<g id="node4" class="node">
<title>{5}</title>
<ellipse fill="none" stroke="black" cx="327.63" cy="-67.6" rx="21.6" ry="21.6"/>
<text text-anchor="middle" x="327.63" y="-63.32" font-family="Times,serif" font-size="12.00">{5}</text>
</g>
<!-- {4}&#45;&gt;{5} -->
<g id="edge3" class="edge">
<title>{4}&#45;&gt;{5}</title>
<path fill="none" stroke="black" d="M263.43,-67.6C272.75,-67.6 283.95,-67.6 294.32,-67.6"/>
<polygon fill="black" stroke="black" points="294.02,-71.1 304.02,-67.6 294.02,-64.1 294.02,-71.1"/>
<text text-anchor="middle" x="284.66" y="-70.8" font-family="Times,serif" font-size="14.00">b</text>
</g>
<!-- {1, 2, 3}&#45;&gt;{4} -->
<g id="edge4" class="edge">
<title>{1, 2, 3}&#45;&gt;{4}</title>
<path fill="none" stroke="black" d="M171.83,-34.41C184.24,-40.39 199.04,-47.53 211.73,-53.65"/>
<polygon fill="black" stroke="black" points="209.91,-56.65 220.43,-57.84 212.95,-50.35 209.91,-56.65"/>
<text text-anchor="middle" x="199.08" y="-52.8" font-family="Times,serif" font-size="14.00">a</text>
</g>
<!-- {1, 2, 3}&#45;&gt;{1, 2, 3} -->
<g id="edge5" class="edge">
<title>{1, 2, 3}&#45;&gt;{1, 2, 3}</title>
<path fill="none" stroke="black" d="M134.22,-42.38C132.98,-52.38 136.32,-61.2 144.25,-61.2 148.83,-61.2 151.88,-58.25 153.4,-53.83"/>
<polygon fill="black" stroke="black" points="156.89,-54.13 154.16,-43.89 149.91,-53.59 156.89,-54.13"/>
<text text-anchor="middle" x="144.25" y="-64.4" font-family="Times,serif" font-size="14.00">b</text>
</g>
<!-- {9, 6, 7} -->
<g id="node5" class="node">
<title>{9, 6, 7}</title>
<ellipse fill="none" stroke="black" cx="429.81" cy="-67.6" rx="33.83" ry="33.83"/>
<ellipse fill="none" stroke="black" cx="429.81" cy="-67.6" rx="37.83" ry="37.83"/>
<text text-anchor="middle" x="429.81" y="-63.32" font-family="Times,serif" font-size="12.00">{9, 6, 7}</text>
</g>
<!-- {5}&#45;&gt;{9, 6, 7} -->
<g id="edge6" class="edge">
<title>{5}&#45;&gt;{9, 6, 7}</title>
<path fill="none" stroke="black" d="M349.39,-67.6C358.49,-67.6 369.59,-67.6 380.57,-67.6"/>
<polygon fill="black" stroke="black" points="380.37,-71.1 390.37,-67.6 380.37,-64.1 380.37,-71.1"/>
<text text-anchor="middle" x="370.61" y="-70.8" font-family="Times,serif" font-size="14.00">b</text>
</g>
<!-- {8, 9, 7} -->
<g id="node6" class="node">
<title>{8, 9, 7}</title>
<ellipse fill="none" stroke="black" cx="548.23" cy="-67.6" rx="33.83" ry="33.83"/>
<ellipse fill="none" stroke="black" cx="548.23" cy="-67.6" rx="37.83" ry="37.83"/>
<text text-anchor="middle" x="548.23" y="-63.32" font-family="Times,serif" font-size="12.00">{8, 9, 7}</text>
</g>
<!-- {9, 6, 7}&#45;&gt;{8, 9, 7} -->
<g id="edge7" class="edge">
<title>{9, 6, 7}&#45;&gt;{8, 9, 7}</title>
<path fill="none" stroke="black" d="M467.97,-67.6C477.73,-67.6 488.41,-67.6 498.68,-67.6"/>
<polygon fill="black" stroke="black" points="498.51,-71.1 508.51,-67.6 498.51,-64.1 498.51,-71.1"/>
<text text-anchor="middle" x="489.02" y="-70.8" font-family="Times,serif" font-size="14.00">a</text>
</g>
<!-- {9, 6, 7}&#45;&gt;{8, 9, 7} -->
<g id="edge8" class="edge">
<title>{9, 6, 7}&#45;&gt;{8, 9, 7}</title>
<path fill="none" stroke="black" d="M463.6,-50.2C472.78,-47.12 482.86,-45.38 492.4,-47.1 495.58,-47.68 498.83,-48.43 502.06,-49.3"/>
<polygon fill="black" stroke="black" points="500.92,-52.61 511.5,-52.21 502.98,-45.92 500.92,-52.61"/>
<text text-anchor="middle" x="489.02" y="-50.8" font-family="Times,serif" font-size="14.00">b</text>
</g>
<!-- {8, 9, 7}&#45;&gt;{8, 9, 7} -->
<g id="edge9" class="edge">
<title>{8, 9, 7}&#45;&gt;{8, 9, 7}</title>
<path fill="none" stroke="black" d="M542.72,-105.44C543.01,-115.66 544.85,-123.43 548.23,-123.43 550.18,-123.43 551.62,-120.83 552.54,-116.67"/>
<polygon fill="black" stroke="black" points="556,-117.26 553.58,-106.94 549.04,-116.52 556,-117.26"/>
<text text-anchor="middle" x="548.23" y="-126.63" font-family="Times,serif" font-size="14.00">a</text>
</g>
<!-- {8, 9, 7}&#45;&gt;{8, 9, 7} -->
<g id="edge10" class="edge">
<title>{8, 9, 7}&#45;&gt;{8, 9, 7}</title>
<path fill="none" stroke="black" d="M537.58,-104.07C535.78,-123.62 539.32,-141.43 548.23,-141.43 555.39,-141.43 559.09,-129.9 559.32,-115.21"/>
<polygon fill="black" stroke="black" points="562.83,-115.43 558.93,-105.58 555.84,-115.71 562.83,-115.43"/>
<text text-anchor="middle" x="548.23" y="-144.63" font-family="Times,serif" font-size="14.00">b</text>
</g>
</g>
</svg>
