<?xml version="1.0" encoding="UTF-8" standalone="no"?>
<!DOCTYPE svg PUBLIC "-//W3C//DTD SVG 1.1//EN"
 "http://www.w3.org/Graphics/SVG/1.1/DTD/svg11.dtd">
<!-- Generated by graphviz version 9.0.0 (20230911.1827)
 -->
<!-- Title: G Pages: 1 -->
<svg width="149pt" height="126pt"
 viewBox="0.00 0.00 148.71 126.35" xmlns="http://www.w3.org/2000/svg" xmlns:xlink="http://www.w3.org/1999/xlink">
<g id="graph0" class="graph" transform="scale(1 1) rotate(0) translate(4 122.35)">
<title>G</title>
<polygon fill="white" stroke="none" points="-4,4 -4,-122.35 144.71,-122.35 144.71,4 -4,4"/>
<!-- Final -->
<g id="node1" class="node">
<title>Final</title>
<ellipse fill="none" stroke="black" cx="113.37" cy="-27.33" rx="23.33" ry="23.33"/>
<ellipse fill="none" stroke="black" cx="113.37" cy="-27.33" rx="27.33" ry="27.33"/>
<text text-anchor="middle" x="113.37" y="-23.06" font-family="Times,serif" font-size="12.00">Final</text>
</g>
<!-- Final&#45;&gt;Final -->
<g id="edge1" class="edge">
<title>Final&#45;&gt;Final</title>
<path fill="none" stroke="black" d="M104.37,-53.42C103.86,-63.88 106.86,-72.67 113.37,-72.67 117.24,-72.67 119.87,-69.57 121.26,-64.86"/>
<polygon fill="black" stroke="black" points="124.74,-65.22 122.23,-54.93 117.78,-64.54 124.74,-65.22"/>
<text text-anchor="middle" x="113.37" y="-75.87" font-family="Times,serif" font-size="14.00">b</text>
</g>
<!-- Start -->
<g id="node2" class="node">
<title>Start</title>
<ellipse fill="lightgrey" stroke="black" cx="22.02" cy="-27.33" rx="22.02" ry="22.02"/>
<text text-anchor="middle" x="22.02" y="-23.06" font-family="Times,serif" font-size="12.00">Start</text>
</g>
<!-- Start&#45;&gt;Final -->
<g id="edge4" class="edge">
<title>Start&#45;&gt;Final</title>
<path fill="none" stroke="black" d="M44.2,-27.33C53.19,-27.33 63.97,-27.33 74.27,-27.33"/>
<polygon fill="black" stroke="black" points="74.07,-30.83 84.07,-27.33 74.07,-23.83 74.07,-30.83"/>
<text text-anchor="middle" x="65.04" y="-30.53" font-family="Times,serif" font-size="14.00">a</text>
</g>
<!-- Start&#45;&gt;Start -->
<g id="edge2" class="edge">
<title>Start&#45;&gt;Start</title>
<path fill="none" stroke="black" d="M18.05,-49.15C17.67,-58.91 19,-67.35 22.02,-67.35 23.72,-67.35 24.88,-64.68 25.51,-60.61"/>
<polygon fill="black" stroke="black" points="29,-60.8 25.93,-50.66 22.01,-60.51 29,-60.8"/>
<text text-anchor="middle" x="22.02" y="-70.55" font-family="Times,serif" font-size="14.00">b</text>
</g>
<!-- Start&#45;&gt;Start -->
<g id="edge3" class="edge">
<title>Start&#45;&gt;Start</title>
<path fill="none" stroke="black" d="M15.18,-48.76C12.26,-66.65 14.54,-85.35 22.02,-85.35 27.92,-85.35 30.58,-73.71 30.01,-60.01"/>
<polygon fill="black" stroke="black" points="33.51,-59.85 29.01,-50.26 26.55,-60.57 33.51,-59.85"/>
<text text-anchor="middle" x="22.02" y="-88.55" font-family="Times,serif" font-size="14.00">a</text>
</g>
</g>
</svg>
