<?xml version="1.0" encoding="UTF-8" standalone="no"?>
<!DOCTYPE svg PUBLIC "-//W3C//DTD SVG 1.1//EN"
 "http://www.w3.org/Graphics/SVG/1.1/DTD/svg11.dtd">
<!-- Generated by graphviz version 9.0.0 (20230911.1827)
 -->
<!-- Title: G Pages: 1 -->
<svg width="911pt" height="129pt"
 viewBox="0.00 0.00 911.29 129.10" xmlns="http://www.w3.org/2000/svg" xmlns:xlink="http://www.w3.org/1999/xlink">
<g id="graph0" class="graph" transform="scale(1 1) rotate(0) translate(4 125.1)">
<title>G</title>
<polygon fill="white" stroke="none" points="-4,4 -4,-125.1 907.29,-125.1 907.29,4 -4,4"/>
<!-- Start -->
<g id="node1" class="node">
<title>Start</title>
<ellipse fill="lightgrey" stroke="black" cx="22.02" cy="-25.6" rx="22.02" ry="22.02"/>
<text text-anchor="middle" x="22.02" y="-21.32" font-family="Times,serif" font-size="12.00">Start</text>
</g>
<!-- 1 -->
<g id="node2" class="node">
<title>1</title>
<ellipse fill="none" stroke="black" cx="106.89" cy="-72.6" rx="21.6" ry="21.6"/>
<text text-anchor="middle" x="106.89" y="-68.32" font-family="Times,serif" font-size="12.00">1</text>
</g>
<!-- Start&#45;&gt;1 -->
<g id="edge2" class="edge">
<title>Start&#45;&gt;1</title>
<path fill="none" stroke="black" d="M41.82,-36.27C52.39,-42.26 65.78,-49.85 77.59,-56.55"/>
<polygon fill="black" stroke="black" points="75.7,-59.5 86.13,-61.39 79.16,-53.41 75.7,-59.5"/>
<text text-anchor="middle" x="64.67" y="-52.3" font-family="Times,serif" font-size="14.00">ğœ€</text>
</g>
<!-- 3 -->
<g id="node4" class="node">
<title>3</title>
<ellipse fill="none" stroke="black" cx="276.54" cy="-25.6" rx="21.6" ry="21.6"/>
<text text-anchor="middle" x="276.54" y="-21.32" font-family="Times,serif" font-size="12.00">3</text>
</g>
<!-- Start&#45;&gt;3 -->
<g id="edge1" class="edge">
<title>Start&#45;&gt;3</title>
<path fill="none" stroke="black" d="M44.12,-25.6C88.32,-25.6 190.92,-25.6 243.39,-25.6"/>
<polygon fill="black" stroke="black" points="243.17,-29.1 253.17,-25.6 243.17,-22.1 243.17,-29.1"/>
<text text-anchor="middle" x="149.49" y="-27.3" font-family="Times,serif" font-size="14.00">ğœ€</text>
</g>
<!-- 2 -->
<g id="node3" class="node">
<title>2</title>
<ellipse fill="none" stroke="black" cx="192.09" cy="-72.6" rx="21.6" ry="21.6"/>
<text text-anchor="middle" x="192.09" y="-68.32" font-family="Times,serif" font-size="12.00">2</text>
</g>
<!-- 1&#45;&gt;2 -->
<g id="edge3" class="edge">
<title>1&#45;&gt;2</title>
<path fill="none" stroke="black" d="M122.17,-87.96C128.89,-94.07 137.41,-100.41 146.49,-103.6 154.87,-106.55 163.12,-103.13 170.21,-97.63"/>
<polygon fill="black" stroke="black" points="172.48,-100.3 177.37,-90.9 167.69,-95.19 172.48,-100.3"/>
<text text-anchor="middle" x="149.49" y="-107.8" font-family="Times,serif" font-size="14.00">a</text>
</g>
<!-- 1&#45;&gt;2 -->
<g id="edge4" class="edge">
<title>1&#45;&gt;2</title>
<path fill="none" stroke="black" d="M128.89,-72.6C137.95,-72.6 148.76,-72.6 158.81,-72.6"/>
<polygon fill="black" stroke="black" points="158.59,-76.1 168.59,-72.6 158.59,-69.1 158.59,-76.1"/>
<text text-anchor="middle" x="149.49" y="-75.8" font-family="Times,serif" font-size="14.00">a</text>
</g>
<!-- 2&#45;&gt;1 -->
<g id="edge5" class="edge">
<title>2&#45;&gt;1</title>
<path fill="none" stroke="black" d="M174.2,-59.78C166.05,-55.08 156,-51.39 146.49,-53.6 143.04,-54.4 139.54,-55.56 136.13,-56.92"/>
<polygon fill="black" stroke="black" points="134.7,-53.72 127.08,-61.08 137.63,-60.08 134.7,-53.72"/>
<text text-anchor="middle" x="149.49" y="-55.3" font-family="Times,serif" font-size="14.00">ğœ€</text>
</g>
<!-- 2&#45;&gt;3 -->
<g id="edge6" class="edge">
<title>2&#45;&gt;3</title>
<path fill="none" stroke="black" d="M211.39,-62.17C221.96,-56.15 235.47,-48.44 247.37,-41.66"/>
<polygon fill="black" stroke="black" points="249.02,-44.74 255.98,-36.75 245.56,-38.66 249.02,-44.74"/>
<text text-anchor="middle" x="234.32" y="-52.3" font-family="Times,serif" font-size="14.00">ğœ€</text>
</g>
<!-- 4 -->
<g id="node5" class="node">
<title>4</title>
<ellipse fill="none" stroke="black" cx="362.49" cy="-25.6" rx="21.6" ry="21.6"/>
<text text-anchor="middle" x="362.49" y="-21.32" font-family="Times,serif" font-size="12.00">4</text>
</g>
<!-- 3&#45;&gt;4 -->
<g id="edge7" class="edge">
<title>3&#45;&gt;4</title>
<path fill="none" stroke="black" d="M298.29,-25.6C307.61,-25.6 318.81,-25.6 329.18,-25.6"/>
<polygon fill="black" stroke="black" points="328.88,-29.1 338.88,-25.6 328.88,-22.1 328.88,-29.1"/>
<text text-anchor="middle" x="319.52" y="-28.8" font-family="Times,serif" font-size="14.00">b</text>
</g>
<!-- 5 -->
<g id="node6" class="node">
<title>5</title>
<ellipse fill="none" stroke="black" cx="448.44" cy="-25.6" rx="21.6" ry="21.6"/>
<text text-anchor="middle" x="448.44" y="-21.32" font-family="Times,serif" font-size="12.00">5</text>
</g>
<!-- 4&#45;&gt;5 -->
<g id="edge8" class="edge">
<title>4&#45;&gt;5</title>
<path fill="none" stroke="black" d="M384.24,-25.6C393.56,-25.6 404.76,-25.6 415.13,-25.6"/>
<polygon fill="black" stroke="black" points="414.83,-29.1 424.83,-25.6 414.83,-22.1 414.83,-29.1"/>
<text text-anchor="middle" x="405.47" y="-28.8" font-family="Times,serif" font-size="14.00">b</text>
</g>
<!-- 6 -->
<g id="node7" class="node">
<title>6</title>
<ellipse fill="none" stroke="black" cx="533.64" cy="-25.6" rx="21.6" ry="21.6"/>
<text text-anchor="middle" x="533.64" y="-21.32" font-family="Times,serif" font-size="12.00">6</text>
</g>
<!-- 5&#45;&gt;6 -->
<g id="edge9" class="edge">
<title>5&#45;&gt;6</title>
<path fill="none" stroke="black" d="M470.44,-25.6C479.5,-25.6 490.31,-25.6 500.36,-25.6"/>
<polygon fill="black" stroke="black" points="500.14,-29.1 510.14,-25.6 500.14,-22.1 500.14,-29.1"/>
<text text-anchor="middle" x="491.04" y="-28.8" font-family="Times,serif" font-size="14.00">a</text>
</g>
<!-- 7 -->
<g id="node8" class="node">
<title>7</title>
<ellipse fill="none" stroke="black" cx="618.84" cy="-25.6" rx="21.6" ry="21.6"/>
<text text-anchor="middle" x="618.84" y="-21.32" font-family="Times,serif" font-size="12.00">7</text>
</g>
<!-- 6&#45;&gt;7 -->
<g id="edge10" class="edge">
<title>6&#45;&gt;7</title>
<path fill="none" stroke="black" d="M555.64,-25.6C564.7,-25.6 575.51,-25.6 585.56,-25.6"/>
<polygon fill="black" stroke="black" points="585.34,-29.1 595.34,-25.6 585.34,-22.1 585.34,-29.1"/>
<text text-anchor="middle" x="576.24" y="-28.8" font-family="Times,serif" font-size="14.00">a</text>
</g>
<!-- 8 -->
<g id="node9" class="node">
<title>8</title>
<ellipse fill="none" stroke="black" cx="703.29" cy="-72.6" rx="21.6" ry="21.6"/>
<text text-anchor="middle" x="703.29" y="-68.32" font-family="Times,serif" font-size="12.00">8</text>
</g>
<!-- 7&#45;&gt;8 -->
<g id="edge12" class="edge">
<title>7&#45;&gt;8</title>
<path fill="none" stroke="black" d="M638.14,-36.03C648.71,-42.05 662.22,-49.76 674.12,-56.54"/>
<polygon fill="black" stroke="black" points="672.31,-59.54 682.73,-61.45 675.77,-53.46 672.31,-59.54"/>
<text text-anchor="middle" x="661.07" y="-52.3" font-family="Times,serif" font-size="14.00">ğœ€</text>
</g>
<!-- 10 -->
<g id="node11" class="node">
<title>10</title>
<ellipse fill="none" stroke="black" cx="877.69" cy="-25.6" rx="21.6" ry="21.6"/>
<ellipse fill="none" stroke="black" cx="877.69" cy="-25.6" rx="25.6" ry="25.6"/>
<text text-anchor="middle" x="877.69" y="-21.32" font-family="Times,serif" font-size="12.00">10</text>
</g>
<!-- 7&#45;&gt;10 -->
<g id="edge11" class="edge">
<title>7&#45;&gt;10</title>
<path fill="none" stroke="black" d="M640.86,-25.6C684.62,-25.6 785.94,-25.6 840.44,-25.6"/>
<polygon fill="black" stroke="black" points="840.13,-29.1 850.13,-25.6 840.13,-22.1 840.13,-29.1"/>
<text text-anchor="middle" x="746.27" y="-27.3" font-family="Times,serif" font-size="14.00">ğœ€</text>
</g>
<!-- 9 -->
<g id="node10" class="node">
<title>9</title>
<ellipse fill="none" stroke="black" cx="789.24" cy="-72.6" rx="21.6" ry="21.6"/>
<text text-anchor="middle" x="789.24" y="-68.32" font-family="Times,serif" font-size="12.00">9</text>
</g>
<!-- 8&#45;&gt;9 -->
<g id="edge13" class="edge">
<title>8&#45;&gt;9</title>
<path fill="none" stroke="black" d="M718.57,-87.96C725.29,-94.07 733.81,-100.41 742.89,-103.6 751.68,-106.69 760.37,-102.91 767.76,-97.04"/>
<polygon fill="black" stroke="black" points="769.79,-99.94 774.65,-90.53 764.98,-94.85 769.79,-99.94"/>
<text text-anchor="middle" x="746.27" y="-107.8" font-family="Times,serif" font-size="14.00">b</text>
</g>
<!-- 8&#45;&gt;9 -->
<g id="edge14" class="edge">
<title>8&#45;&gt;9</title>
<path fill="none" stroke="black" d="M725.04,-72.6C734.36,-72.6 745.56,-72.6 755.93,-72.6"/>
<polygon fill="black" stroke="black" points="755.63,-76.1 765.63,-72.6 755.63,-69.1 755.63,-76.1"/>
<text text-anchor="middle" x="746.27" y="-75.8" font-family="Times,serif" font-size="14.00">b</text>
</g>
<!-- 9&#45;&gt;8 -->
<g id="edge15" class="edge">
<title>9&#45;&gt;8</title>
<path fill="none" stroke="black" d="M771.47,-60C763.1,-55.17 752.7,-51.32 742.89,-53.6 739.44,-54.4 735.94,-55.56 732.53,-56.92"/>
<polygon fill="black" stroke="black" points="731.1,-53.72 723.48,-61.08 734.03,-60.08 731.1,-53.72"/>
<text text-anchor="middle" x="746.27" y="-55.3" font-family="Times,serif" font-size="14.00">ğœ€</text>
</g>
<!-- 9&#45;&gt;10 -->
<g id="edge16" class="edge">
<title>9&#45;&gt;10</title>
<path fill="none" stroke="black" d="M808.57,-62.63C819.11,-56.91 832.63,-49.55 844.85,-42.91"/>
<polygon fill="black" stroke="black" points="846.26,-46.13 853.38,-38.27 842.92,-39.98 846.26,-46.13"/>
<text text-anchor="middle" x="831.47" y="-52.3" font-family="Times,serif" font-size="14.00">ğœ€</text>
</g>
</g>
</svg>
