<?xml version="1.0" encoding="UTF-8" standalone="no"?>
<!DOCTYPE svg PUBLIC "-//W3C//DTD SVG 1.1//EN"
 "http://www.w3.org/Graphics/SVG/1.1/DTD/svg11.dtd">
<!-- Generated by graphviz version 9.0.0 (20230911.1827)
 -->
<!-- Title: G Pages: 1 -->
<svg width="659pt" height="59pt"
 viewBox="0.00 0.00 658.69 59.20" xmlns="http://www.w3.org/2000/svg" xmlns:xlink="http://www.w3.org/1999/xlink">
<g id="graph0" class="graph" transform="scale(1 1) rotate(0) translate(4 55.2)">
<title>G</title>
<polygon fill="white" stroke="none" points="-4,4 -4,-55.2 654.69,-55.2 654.69,4 -4,4"/>
<!-- Start -->
<g id="node1" class="node">
<title>Start</title>
<ellipse fill="lightgrey" stroke="black" cx="22.02" cy="-25.6" rx="22.02" ry="22.02"/>
<text text-anchor="middle" x="22.02" y="-21.32" font-family="Times,serif" font-size="12.00">Start</text>
</g>
<!-- 1 -->
<g id="node2" class="node">
<title>1</title>
<ellipse fill="none" stroke="black" cx="108.39" cy="-25.6" rx="21.6" ry="21.6"/>
<text text-anchor="middle" x="108.39" y="-21.32" font-family="Times,serif" font-size="12.00">1</text>
</g>
<!-- Start&#45;&gt;1 -->
<g id="edge1" class="edge">
<title>Start&#45;&gt;1</title>
<path fill="none" stroke="black" d="M44.31,-25.6C53.57,-25.6 64.63,-25.6 74.89,-25.6"/>
<polygon fill="black" stroke="black" points="74.89,-29.1 84.89,-25.6 74.89,-22.1 74.89,-29.1"/>
<text text-anchor="middle" x="65.42" y="-28.8" font-family="Times,serif" font-size="14.00">b</text>
</g>
<!-- 2 -->
<g id="node3" class="node">
<title>2</title>
<ellipse fill="none" stroke="black" cx="194.34" cy="-25.6" rx="21.6" ry="21.6"/>
<text text-anchor="middle" x="194.34" y="-21.32" font-family="Times,serif" font-size="12.00">2</text>
</g>
<!-- 1&#45;&gt;2 -->
<g id="edge2" class="edge">
<title>1&#45;&gt;2</title>
<path fill="none" stroke="black" d="M130.14,-25.6C139.46,-25.6 150.66,-25.6 161.03,-25.6"/>
<polygon fill="black" stroke="black" points="160.73,-29.1 170.73,-25.6 160.73,-22.1 160.73,-29.1"/>
<text text-anchor="middle" x="151.37" y="-28.8" font-family="Times,serif" font-size="14.00">b</text>
</g>
<!-- 3 -->
<g id="node4" class="node">
<title>3</title>
<ellipse fill="none" stroke="black" cx="279.54" cy="-25.6" rx="21.6" ry="21.6"/>
<text text-anchor="middle" x="279.54" y="-21.32" font-family="Times,serif" font-size="12.00">3</text>
</g>
<!-- 2&#45;&gt;3 -->
<g id="edge3" class="edge">
<title>2&#45;&gt;3</title>
<path fill="none" stroke="black" d="M216.34,-25.6C225.4,-25.6 236.21,-25.6 246.26,-25.6"/>
<polygon fill="black" stroke="black" points="246.04,-29.1 256.04,-25.6 246.04,-22.1 246.04,-29.1"/>
<text text-anchor="middle" x="236.94" y="-28.8" font-family="Times,serif" font-size="14.00">a</text>
</g>
<!-- 4 -->
<g id="node5" class="node">
<title>4</title>
<ellipse fill="none" stroke="black" cx="364.74" cy="-25.6" rx="21.6" ry="21.6"/>
<text text-anchor="middle" x="364.74" y="-21.32" font-family="Times,serif" font-size="12.00">4</text>
</g>
<!-- 3&#45;&gt;4 -->
<g id="edge4" class="edge">
<title>3&#45;&gt;4</title>
<path fill="none" stroke="black" d="M301.54,-25.6C310.6,-25.6 321.41,-25.6 331.46,-25.6"/>
<polygon fill="black" stroke="black" points="331.24,-29.1 341.24,-25.6 331.24,-22.1 331.24,-29.1"/>
<text text-anchor="middle" x="322.14" y="-28.8" font-family="Times,serif" font-size="14.00">a</text>
</g>
<!-- 5 -->
<g id="node6" class="node">
<title>5</title>
<ellipse fill="none" stroke="black" cx="449.94" cy="-25.6" rx="21.6" ry="21.6"/>
<text text-anchor="middle" x="449.94" y="-21.32" font-family="Times,serif" font-size="12.00">5</text>
</g>
<!-- 4&#45;&gt;5 -->
<g id="edge5" class="edge">
<title>4&#45;&gt;5</title>
<path fill="none" stroke="black" d="M386.74,-25.6C395.8,-25.6 406.61,-25.6 416.66,-25.6"/>
<polygon fill="black" stroke="black" points="416.44,-29.1 426.44,-25.6 416.44,-22.1 416.44,-29.1"/>
<text text-anchor="middle" x="407.34" y="-28.8" font-family="Times,serif" font-size="14.00">a</text>
</g>
<!-- 6 -->
<g id="node7" class="node">
<title>6</title>
<ellipse fill="none" stroke="black" cx="535.14" cy="-25.6" rx="21.6" ry="21.6"/>
<text text-anchor="middle" x="535.14" y="-21.32" font-family="Times,serif" font-size="12.00">6</text>
</g>
<!-- 5&#45;&gt;6 -->
<g id="edge6" class="edge">
<title>5&#45;&gt;6</title>
<path fill="none" stroke="black" d="M471.94,-25.6C481,-25.6 491.81,-25.6 501.86,-25.6"/>
<polygon fill="black" stroke="black" points="501.64,-29.1 511.64,-25.6 501.64,-22.1 501.64,-29.1"/>
<text text-anchor="middle" x="492.54" y="-28.8" font-family="Times,serif" font-size="14.00">a</text>
</g>
<!-- 7 -->
<g id="node8" class="node">
<title>7</title>
<ellipse fill="none" stroke="black" cx="625.09" cy="-25.6" rx="21.6" ry="21.6"/>
<ellipse fill="none" stroke="black" cx="625.09" cy="-25.6" rx="25.6" ry="25.6"/>
<text text-anchor="middle" x="625.09" y="-21.32" font-family="Times,serif" font-size="12.00">7</text>
</g>
<!-- 6&#45;&gt;7 -->
<g id="edge7" class="edge">
<title>6&#45;&gt;7</title>
<path fill="none" stroke="black" d="M556.98,-25.6C566.14,-25.6 577.16,-25.6 587.6,-25.6"/>
<polygon fill="black" stroke="black" points="587.5,-29.1 597.5,-25.6 587.5,-22.1 587.5,-29.1"/>
<text text-anchor="middle" x="578.12" y="-28.8" font-family="Times,serif" font-size="14.00">d</text>
</g>
<!-- 6&#45;&gt;7 -->
<g id="edge8" class="edge">
<title>6&#45;&gt;7</title>
<path fill="none" stroke="black" d="M553.86,-13.87C560.18,-10.32 567.53,-6.9 574.74,-5.1 580.93,-3.56 587.35,-4.32 593.44,-6.27"/>
<polygon fill="black" stroke="black" points="591.95,-9.44 602.52,-10.19 594.73,-3.01 591.95,-9.44"/>
<text text-anchor="middle" x="578.12" y="-7.8" font-family="Times,serif" font-size="14.00">g</text>
</g>
</g>
</svg>
