<?xml version="1.0" encoding="UTF-8" standalone="no"?>
<!DOCTYPE svg PUBLIC "-//W3C//DTD SVG 1.1//EN"
 "http://www.w3.org/Graphics/SVG/1.1/DTD/svg11.dtd">
<!-- Generated by graphviz version 9.0.0 (20230911.1827)
 -->
<!-- Title: G Pages: 1 -->
<svg width="826pt" height="129pt"
 viewBox="0.00 0.00 826.00 129.10" xmlns="http://www.w3.org/2000/svg" xmlns:xlink="http://www.w3.org/1999/xlink">
<g id="graph0" class="graph" transform="scale(1 1) rotate(0) translate(4 125.1)">
<title>G</title>
<polygon fill="white" stroke="none" points="-4,4 -4,-125.1 822,-125.1 822,4 -4,4"/>
<!-- 0 -->
<g id="node1" class="node">
<title>0</title>
<ellipse fill="lightgrey" stroke="black" cx="21.6" cy="-25.6" rx="21.6" ry="21.6"/>
<text text-anchor="middle" x="21.6" y="-21.32" font-family="Times,serif" font-size="12.00">0</text>
</g>
<!-- 1 -->
<g id="node2" class="node">
<title>1</title>
<ellipse fill="none" stroke="black" cx="106.05" cy="-72.6" rx="21.6" ry="21.6"/>
<text text-anchor="middle" x="106.05" y="-68.32" font-family="Times,serif" font-size="12.00">1</text>
</g>
<!-- 0&#45;&gt;1 -->
<g id="edge2" class="edge">
<title>0&#45;&gt;1</title>
<path fill="none" stroke="black" d="M40.9,-36.03C51.47,-42.05 64.98,-49.76 76.88,-56.54"/>
<polygon fill="black" stroke="black" points="75.07,-59.54 85.49,-61.45 78.53,-53.46 75.07,-59.54"/>
<text text-anchor="middle" x="63.83" y="-52.3" font-family="Times,serif" font-size="14.00">ğœ€</text>
</g>
<!-- 3 -->
<g id="node4" class="node">
<title>3</title>
<ellipse fill="none" stroke="black" cx="276.45" cy="-25.6" rx="21.6" ry="21.6"/>
<text text-anchor="middle" x="276.45" y="-21.32" font-family="Times,serif" font-size="12.00">3</text>
</g>
<!-- 0&#45;&gt;3 -->
<g id="edge1" class="edge">
<title>0&#45;&gt;3</title>
<path fill="none" stroke="black" d="M43.29,-25.6C87.28,-25.6 190.37,-25.6 243.11,-25.6"/>
<polygon fill="black" stroke="black" points="242.96,-29.1 252.96,-25.6 242.96,-22.1 242.96,-29.1"/>
<text text-anchor="middle" x="149.03" y="-27.3" font-family="Times,serif" font-size="14.00">ğœ€</text>
</g>
<!-- 2 -->
<g id="node3" class="node">
<title>2</title>
<ellipse fill="none" stroke="black" cx="192" cy="-72.6" rx="21.6" ry="21.6"/>
<text text-anchor="middle" x="192" y="-68.32" font-family="Times,serif" font-size="12.00">2</text>
</g>
<!-- 1&#45;&gt;2 -->
<g id="edge3" class="edge">
<title>1&#45;&gt;2</title>
<path fill="none" stroke="black" d="M121.33,-87.96C128.05,-94.07 136.57,-100.41 145.65,-103.6 154.44,-106.69 163.13,-102.91 170.52,-97.04"/>
<polygon fill="black" stroke="black" points="172.55,-99.94 177.41,-90.53 167.74,-94.85 172.55,-99.94"/>
<text text-anchor="middle" x="149.03" y="-107.8" font-family="Times,serif" font-size="14.00">b</text>
</g>
<!-- 1&#45;&gt;2 -->
<g id="edge4" class="edge">
<title>1&#45;&gt;2</title>
<path fill="none" stroke="black" d="M127.8,-72.6C137.12,-72.6 148.32,-72.6 158.69,-72.6"/>
<polygon fill="black" stroke="black" points="158.39,-76.1 168.39,-72.6 158.39,-69.1 158.39,-76.1"/>
<text text-anchor="middle" x="149.03" y="-75.8" font-family="Times,serif" font-size="14.00">b</text>
</g>
<!-- 2&#45;&gt;1 -->
<g id="edge5" class="edge">
<title>2&#45;&gt;1</title>
<path fill="none" stroke="black" d="M173.19,-61.72C166.86,-58.43 159.53,-55.26 152.4,-53.6 146.27,-52.17 139.91,-53.14 133.95,-55.25"/>
<polygon fill="black" stroke="black" points="132.77,-51.94 125.19,-59.36 135.74,-58.28 132.77,-51.94"/>
<text text-anchor="middle" x="149.03" y="-55.3" font-family="Times,serif" font-size="14.00">ğœ€</text>
</g>
<!-- 2&#45;&gt;3 -->
<g id="edge6" class="edge">
<title>2&#45;&gt;3</title>
<path fill="none" stroke="black" d="M211.3,-62.17C221.87,-56.15 235.38,-48.44 247.28,-41.66"/>
<polygon fill="black" stroke="black" points="248.93,-44.74 255.89,-36.75 245.47,-38.66 248.93,-44.74"/>
<text text-anchor="middle" x="234.23" y="-52.3" font-family="Times,serif" font-size="14.00">ğœ€</text>
</g>
<!-- 4 -->
<g id="node5" class="node">
<title>4</title>
<ellipse fill="none" stroke="black" cx="361.65" cy="-25.6" rx="21.6" ry="21.6"/>
<text text-anchor="middle" x="361.65" y="-21.32" font-family="Times,serif" font-size="12.00">4</text>
</g>
<!-- 3&#45;&gt;4 -->
<g id="edge7" class="edge">
<title>3&#45;&gt;4</title>
<path fill="none" stroke="black" d="M298.44,-25.6C307.51,-25.6 318.32,-25.6 328.37,-25.6"/>
<polygon fill="black" stroke="black" points="328.15,-29.1 338.15,-25.6 328.15,-22.1 328.15,-29.1"/>
<text text-anchor="middle" x="319.05" y="-28.8" font-family="Times,serif" font-size="14.00">a</text>
</g>
<!-- 5 -->
<g id="node6" class="node">
<title>5</title>
<ellipse fill="none" stroke="black" cx="447.6" cy="-25.6" rx="21.6" ry="21.6"/>
<text text-anchor="middle" x="447.6" y="-21.32" font-family="Times,serif" font-size="12.00">5</text>
</g>
<!-- 4&#45;&gt;5 -->
<g id="edge8" class="edge">
<title>4&#45;&gt;5</title>
<path fill="none" stroke="black" d="M383.4,-25.6C392.72,-25.6 403.92,-25.6 414.29,-25.6"/>
<polygon fill="black" stroke="black" points="413.99,-29.1 423.99,-25.6 413.99,-22.1 413.99,-29.1"/>
<text text-anchor="middle" x="404.63" y="-28.8" font-family="Times,serif" font-size="14.00">b</text>
</g>
<!-- 6 -->
<g id="node7" class="node">
<title>6</title>
<ellipse fill="none" stroke="black" cx="533.55" cy="-25.6" rx="21.6" ry="21.6"/>
<text text-anchor="middle" x="533.55" y="-21.32" font-family="Times,serif" font-size="12.00">6</text>
</g>
<!-- 5&#45;&gt;6 -->
<g id="edge9" class="edge">
<title>5&#45;&gt;6</title>
<path fill="none" stroke="black" d="M469.35,-25.6C478.67,-25.6 489.87,-25.6 500.24,-25.6"/>
<polygon fill="black" stroke="black" points="499.94,-29.1 509.94,-25.6 499.94,-22.1 499.94,-29.1"/>
<text text-anchor="middle" x="490.58" y="-28.8" font-family="Times,serif" font-size="14.00">b</text>
</g>
<!-- 7 -->
<g id="node8" class="node">
<title>7</title>
<ellipse fill="none" stroke="black" cx="618" cy="-72.6" rx="21.6" ry="21.6"/>
<text text-anchor="middle" x="618" y="-68.32" font-family="Times,serif" font-size="12.00">7</text>
</g>
<!-- 6&#45;&gt;7 -->
<g id="edge11" class="edge">
<title>6&#45;&gt;7</title>
<path fill="none" stroke="black" d="M552.85,-36.03C563.42,-42.05 576.93,-49.76 588.83,-56.54"/>
<polygon fill="black" stroke="black" points="587.02,-59.54 597.44,-61.45 590.48,-53.46 587.02,-59.54"/>
<text text-anchor="middle" x="575.78" y="-52.3" font-family="Times,serif" font-size="14.00">ğœ€</text>
</g>
<!-- 9 -->
<g id="node10" class="node">
<title>9</title>
<ellipse fill="none" stroke="black" cx="792.4" cy="-25.6" rx="21.6" ry="21.6"/>
<ellipse fill="none" stroke="black" cx="792.4" cy="-25.6" rx="25.6" ry="25.6"/>
<text text-anchor="middle" x="792.4" y="-21.32" font-family="Times,serif" font-size="12.00">9</text>
</g>
<!-- 6&#45;&gt;9 -->
<g id="edge10" class="edge">
<title>6&#45;&gt;9</title>
<path fill="none" stroke="black" d="M555.57,-25.6C599.32,-25.6 700.65,-25.6 755.15,-25.6"/>
<polygon fill="black" stroke="black" points="754.83,-29.1 764.83,-25.6 754.83,-22.1 754.83,-29.1"/>
<text text-anchor="middle" x="660.98" y="-27.3" font-family="Times,serif" font-size="14.00">ğœ€</text>
</g>
<!-- 8 -->
<g id="node9" class="node">
<title>8</title>
<ellipse fill="none" stroke="black" cx="703.95" cy="-72.6" rx="21.6" ry="21.6"/>
<text text-anchor="middle" x="703.95" y="-68.32" font-family="Times,serif" font-size="12.00">8</text>
</g>
<!-- 7&#45;&gt;8 -->
<g id="edge12" class="edge">
<title>7&#45;&gt;8</title>
<path fill="none" stroke="black" d="M633.28,-87.96C640,-94.07 648.52,-100.41 657.6,-103.6 666.39,-106.69 675.08,-102.91 682.47,-97.04"/>
<polygon fill="black" stroke="black" points="684.5,-99.94 689.36,-90.53 679.69,-94.85 684.5,-99.94"/>
<text text-anchor="middle" x="660.98" y="-107.8" font-family="Times,serif" font-size="14.00">b</text>
</g>
<!-- 7&#45;&gt;8 -->
<g id="edge13" class="edge">
<title>7&#45;&gt;8</title>
<path fill="none" stroke="black" d="M639.75,-72.6C649.07,-72.6 660.27,-72.6 670.64,-72.6"/>
<polygon fill="black" stroke="black" points="670.34,-76.1 680.34,-72.6 670.34,-69.1 670.34,-76.1"/>
<text text-anchor="middle" x="660.98" y="-75.8" font-family="Times,serif" font-size="14.00">a</text>
</g>
<!-- 8&#45;&gt;7 -->
<g id="edge14" class="edge">
<title>8&#45;&gt;7</title>
<path fill="none" stroke="black" d="M686.18,-60C677.81,-55.17 667.41,-51.32 657.6,-53.6 654.15,-54.4 650.65,-55.56 647.24,-56.92"/>
<polygon fill="black" stroke="black" points="645.81,-53.72 638.19,-61.08 648.74,-60.08 645.81,-53.72"/>
<text text-anchor="middle" x="660.98" y="-55.3" font-family="Times,serif" font-size="14.00">ğœ€</text>
</g>
<!-- 8&#45;&gt;9 -->
<g id="edge15" class="edge">
<title>8&#45;&gt;9</title>
<path fill="none" stroke="black" d="M723.28,-62.63C733.82,-56.91 747.34,-49.55 759.56,-42.91"/>
<polygon fill="black" stroke="black" points="760.97,-46.13 768.09,-38.27 757.63,-39.98 760.97,-46.13"/>
<text text-anchor="middle" x="746.18" y="-52.3" font-family="Times,serif" font-size="14.00">ğœ€</text>
</g>
</g>
</svg>
