<?xml version="1.0" encoding="UTF-8" standalone="no"?>
<!DOCTYPE svg PUBLIC "-//W3C//DTD SVG 1.1//EN"
 "http://www.w3.org/Graphics/SVG/1.1/DTD/svg11.dtd">
<!-- Generated by graphviz version 9.0.0 (20230911.1827)
 -->
<!-- Title: G Pages: 1 -->
<svg width="827pt" height="129pt"
 viewBox="0.00 0.00 826.84 129.10" xmlns="http://www.w3.org/2000/svg" xmlns:xlink="http://www.w3.org/1999/xlink">
<g id="graph0" class="graph" transform="scale(1 1) rotate(0) translate(4 125.1)">
<title>G</title>
<polygon fill="white" stroke="none" points="-4,4 -4,-125.1 822.84,-125.1 822.84,4 -4,4"/>
<!-- Start -->
<g id="node1" class="node">
<title>Start</title>
<ellipse fill="lightgrey" stroke="black" cx="22.02" cy="-25.6" rx="22.02" ry="22.02"/>
<text text-anchor="middle" x="22.02" y="-21.32" font-family="Times,serif" font-size="12.00">Start</text>
</g>
<!-- 1 -->
<g id="node2" class="node">
<title>1</title>
<ellipse fill="none" stroke="black" cx="106.89" cy="-72.6" rx="21.6" ry="21.6"/>
<text text-anchor="middle" x="106.89" y="-68.32" font-family="Times,serif" font-size="12.00">1</text>
</g>
<!-- Start&#45;&gt;1 -->
<g id="edge2" class="edge">
<title>Start&#45;&gt;1</title>
<path fill="none" stroke="black" d="M41.82,-36.27C52.39,-42.26 65.78,-49.85 77.59,-56.55"/>
<polygon fill="black" stroke="black" points="75.7,-59.5 86.13,-61.39 79.16,-53.41 75.7,-59.5"/>
<text text-anchor="middle" x="64.67" y="-52.3" font-family="Times,serif" font-size="14.00">ğœ€</text>
</g>
<!-- 3 -->
<g id="node4" class="node">
<title>3</title>
<ellipse fill="none" stroke="black" cx="277.29" cy="-25.6" rx="21.6" ry="21.6"/>
<text text-anchor="middle" x="277.29" y="-21.32" font-family="Times,serif" font-size="12.00">3</text>
</g>
<!-- Start&#45;&gt;3 -->
<g id="edge1" class="edge">
<title>Start&#45;&gt;3</title>
<path fill="none" stroke="black" d="M44.18,-25.6C88.52,-25.6 191.42,-25.6 244.04,-25.6"/>
<polygon fill="black" stroke="black" points="243.86,-29.1 253.86,-25.6 243.86,-22.1 243.86,-29.1"/>
<text text-anchor="middle" x="149.87" y="-27.3" font-family="Times,serif" font-size="14.00">ğœ€</text>
</g>
<!-- 2 -->
<g id="node3" class="node">
<title>2</title>
<ellipse fill="none" stroke="black" cx="192.84" cy="-72.6" rx="21.6" ry="21.6"/>
<text text-anchor="middle" x="192.84" y="-68.32" font-family="Times,serif" font-size="12.00">2</text>
</g>
<!-- 1&#45;&gt;2 -->
<g id="edge3" class="edge">
<title>1&#45;&gt;2</title>
<path fill="none" stroke="black" d="M122.17,-87.96C128.89,-94.07 137.41,-100.41 146.49,-103.6 155.28,-106.69 163.97,-102.91 171.36,-97.04"/>
<polygon fill="black" stroke="black" points="173.39,-99.94 178.25,-90.53 168.58,-94.85 173.39,-99.94"/>
<text text-anchor="middle" x="149.87" y="-107.8" font-family="Times,serif" font-size="14.00">b</text>
</g>
<!-- 1&#45;&gt;2 -->
<g id="edge4" class="edge">
<title>1&#45;&gt;2</title>
<path fill="none" stroke="black" d="M128.64,-72.6C137.96,-72.6 149.16,-72.6 159.53,-72.6"/>
<polygon fill="black" stroke="black" points="159.23,-76.1 169.23,-72.6 159.23,-69.1 159.23,-76.1"/>
<text text-anchor="middle" x="149.87" y="-75.8" font-family="Times,serif" font-size="14.00">b</text>
</g>
<!-- 2&#45;&gt;1 -->
<g id="edge5" class="edge">
<title>2&#45;&gt;1</title>
<path fill="none" stroke="black" d="M174.03,-61.72C167.7,-58.43 160.37,-55.26 153.24,-53.6 147.11,-52.17 140.75,-53.14 134.8,-55.25"/>
<polygon fill="black" stroke="black" points="133.61,-51.94 126.04,-59.36 136.58,-58.28 133.61,-51.94"/>
<text text-anchor="middle" x="149.87" y="-55.3" font-family="Times,serif" font-size="14.00">ğœ€</text>
</g>
<!-- 2&#45;&gt;3 -->
<g id="edge6" class="edge">
<title>2&#45;&gt;3</title>
<path fill="none" stroke="black" d="M212.14,-62.17C222.71,-56.15 236.22,-48.44 248.12,-41.66"/>
<polygon fill="black" stroke="black" points="249.77,-44.74 256.73,-36.75 246.31,-38.66 249.77,-44.74"/>
<text text-anchor="middle" x="235.07" y="-52.3" font-family="Times,serif" font-size="14.00">ğœ€</text>
</g>
<!-- 4 -->
<g id="node5" class="node">
<title>4</title>
<ellipse fill="none" stroke="black" cx="362.49" cy="-25.6" rx="21.6" ry="21.6"/>
<text text-anchor="middle" x="362.49" y="-21.32" font-family="Times,serif" font-size="12.00">4</text>
</g>
<!-- 3&#45;&gt;4 -->
<g id="edge7" class="edge">
<title>3&#45;&gt;4</title>
<path fill="none" stroke="black" d="M299.29,-25.6C308.35,-25.6 319.16,-25.6 329.21,-25.6"/>
<polygon fill="black" stroke="black" points="328.99,-29.1 338.99,-25.6 328.99,-22.1 328.99,-29.1"/>
<text text-anchor="middle" x="319.89" y="-28.8" font-family="Times,serif" font-size="14.00">a</text>
</g>
<!-- 5 -->
<g id="node6" class="node">
<title>5</title>
<ellipse fill="none" stroke="black" cx="448.44" cy="-25.6" rx="21.6" ry="21.6"/>
<text text-anchor="middle" x="448.44" y="-21.32" font-family="Times,serif" font-size="12.00">5</text>
</g>
<!-- 4&#45;&gt;5 -->
<g id="edge8" class="edge">
<title>4&#45;&gt;5</title>
<path fill="none" stroke="black" d="M384.24,-25.6C393.56,-25.6 404.76,-25.6 415.13,-25.6"/>
<polygon fill="black" stroke="black" points="414.83,-29.1 424.83,-25.6 414.83,-22.1 414.83,-29.1"/>
<text text-anchor="middle" x="405.47" y="-28.8" font-family="Times,serif" font-size="14.00">b</text>
</g>
<!-- 6 -->
<g id="node7" class="node">
<title>6</title>
<ellipse fill="none" stroke="black" cx="534.39" cy="-25.6" rx="21.6" ry="21.6"/>
<text text-anchor="middle" x="534.39" y="-21.32" font-family="Times,serif" font-size="12.00">6</text>
</g>
<!-- 5&#45;&gt;6 -->
<g id="edge9" class="edge">
<title>5&#45;&gt;6</title>
<path fill="none" stroke="black" d="M470.19,-25.6C479.51,-25.6 490.71,-25.6 501.08,-25.6"/>
<polygon fill="black" stroke="black" points="500.78,-29.1 510.78,-25.6 500.78,-22.1 500.78,-29.1"/>
<text text-anchor="middle" x="491.42" y="-28.8" font-family="Times,serif" font-size="14.00">b</text>
</g>
<!-- 7 -->
<g id="node8" class="node">
<title>7</title>
<ellipse fill="none" stroke="black" cx="618.84" cy="-72.6" rx="21.6" ry="21.6"/>
<text text-anchor="middle" x="618.84" y="-68.32" font-family="Times,serif" font-size="12.00">7</text>
</g>
<!-- 6&#45;&gt;7 -->
<g id="edge11" class="edge">
<title>6&#45;&gt;7</title>
<path fill="none" stroke="black" d="M553.69,-36.03C564.26,-42.05 577.77,-49.76 589.67,-56.54"/>
<polygon fill="black" stroke="black" points="587.86,-59.54 598.28,-61.45 591.32,-53.46 587.86,-59.54"/>
<text text-anchor="middle" x="576.62" y="-52.3" font-family="Times,serif" font-size="14.00">ğœ€</text>
</g>
<!-- 9 -->
<g id="node10" class="node">
<title>9</title>
<ellipse fill="none" stroke="black" cx="793.24" cy="-25.6" rx="21.6" ry="21.6"/>
<ellipse fill="none" stroke="black" cx="793.24" cy="-25.6" rx="25.6" ry="25.6"/>
<text text-anchor="middle" x="793.24" y="-21.32" font-family="Times,serif" font-size="12.00">9</text>
</g>
<!-- 6&#45;&gt;9 -->
<g id="edge10" class="edge">
<title>6&#45;&gt;9</title>
<path fill="none" stroke="black" d="M556.41,-25.6C600.17,-25.6 701.49,-25.6 755.99,-25.6"/>
<polygon fill="black" stroke="black" points="755.68,-29.1 765.68,-25.6 755.68,-22.1 755.68,-29.1"/>
<text text-anchor="middle" x="661.82" y="-27.3" font-family="Times,serif" font-size="14.00">ğœ€</text>
</g>
<!-- 8 -->
<g id="node9" class="node">
<title>8</title>
<ellipse fill="none" stroke="black" cx="704.79" cy="-72.6" rx="21.6" ry="21.6"/>
<text text-anchor="middle" x="704.79" y="-68.32" font-family="Times,serif" font-size="12.00">8</text>
</g>
<!-- 7&#45;&gt;8 -->
<g id="edge12" class="edge">
<title>7&#45;&gt;8</title>
<path fill="none" stroke="black" d="M634.12,-87.96C640.84,-94.07 649.36,-100.41 658.44,-103.6 667.23,-106.69 675.92,-102.91 683.31,-97.04"/>
<polygon fill="black" stroke="black" points="685.34,-99.94 690.2,-90.53 680.53,-94.85 685.34,-99.94"/>
<text text-anchor="middle" x="661.82" y="-107.8" font-family="Times,serif" font-size="14.00">b</text>
</g>
<!-- 7&#45;&gt;8 -->
<g id="edge13" class="edge">
<title>7&#45;&gt;8</title>
<path fill="none" stroke="black" d="M640.59,-72.6C649.91,-72.6 661.11,-72.6 671.48,-72.6"/>
<polygon fill="black" stroke="black" points="671.18,-76.1 681.18,-72.6 671.18,-69.1 671.18,-76.1"/>
<text text-anchor="middle" x="661.82" y="-75.8" font-family="Times,serif" font-size="14.00">a</text>
</g>
<!-- 8&#45;&gt;7 -->
<g id="edge14" class="edge">
<title>8&#45;&gt;7</title>
<path fill="none" stroke="black" d="M687.02,-60C678.65,-55.17 668.25,-51.32 658.44,-53.6 654.99,-54.4 651.49,-55.56 648.08,-56.92"/>
<polygon fill="black" stroke="black" points="646.65,-53.72 639.03,-61.08 649.58,-60.08 646.65,-53.72"/>
<text text-anchor="middle" x="661.82" y="-55.3" font-family="Times,serif" font-size="14.00">ğœ€</text>
</g>
<!-- 8&#45;&gt;9 -->
<g id="edge15" class="edge">
<title>8&#45;&gt;9</title>
<path fill="none" stroke="black" d="M724.12,-62.63C734.66,-56.91 748.18,-49.55 760.4,-42.91"/>
<polygon fill="black" stroke="black" points="761.81,-46.13 768.93,-38.27 758.47,-39.98 761.81,-46.13"/>
<text text-anchor="middle" x="747.02" y="-52.3" font-family="Times,serif" font-size="14.00">ğœ€</text>
</g>
</g>
</svg>
